<svg width="35" height="35" viewBox="0 0 35 35" fill="none" xmlns="http://www.w3.org/2000/svg">
<path fill-rule="evenodd" clip-rule="evenodd" d="M34.7684 17.5C34.7684 27.1644 27.2033 35 17.8725 35C8.54172 35 0.976562 27.1644 0.976562 17.5C0.976562 7.83563 8.54172 0 17.8725 0C27.2033 0 34.7684 7.83563 34.7684 17.5ZM18.4779 12.9194C16.8348 13.6267 13.55 15.0923 8.62479 17.3148C7.82505 17.6444 7.40547 17.9667 7.36745 18.2817C7.30268 18.8154 7.94754 19.0254 8.82332 19.3098C8.943 19.3492 9.0669 19.3885 9.19362 19.4323C10.0567 19.7225 11.2169 20.0623 11.8195 20.0754C12.3672 20.0871 12.9783 19.8538 13.6527 19.3754C18.2541 16.1569 20.6294 14.5308 20.7786 14.4958C20.8842 14.471 21.0306 14.439 21.1292 14.5308C21.2278 14.6213 21.2179 14.7933 21.208 14.84C21.1433 15.1215 18.6173 17.5554 17.3079 18.8154C16.8996 19.2077 16.6109 19.4862 16.5518 19.5504C16.4194 19.6919 16.2843 19.8275 16.1547 19.9573C15.3522 20.7565 14.7524 21.3573 16.1885 22.3373C16.8785 22.8083 17.4304 23.1977 17.9809 23.5856C18.5821 24.01 19.1819 24.4329 19.9591 24.9608C20.1563 25.095 20.3449 25.2335 20.5294 25.3692C21.2292 25.8869 21.8585 26.3506 22.6357 26.2777C23.0863 26.234 23.5538 25.795 23.7903 24.484C24.3493 21.3835 25.4503 14.6694 25.7052 11.9015C25.7207 11.6716 25.7112 11.4408 25.677 11.2131C25.6565 11.0293 25.5701 10.8601 25.4348 10.7392C25.2335 10.5685 24.9209 10.5321 24.7801 10.535C24.1451 10.5467 23.1708 10.8981 18.4779 12.9194Z" fill="white"/>
</svg>
