<svg width="35" height="21" viewBox="0 0 35 21" fill="none" xmlns="http://www.w3.org/2000/svg">
<path fill-rule="evenodd" clip-rule="evenodd" d="M33.2678 1.48954C33.5015 0.675795 33.2678 0.0766602 32.1484 0.0766602H28.4525C27.512 0.0766602 27.0783 0.593824 26.8432 1.16464C26.8432 1.16464 24.9636 5.92791 22.3011 9.02195C21.4394 9.91916 21.048 10.2038 20.5778 10.2038C20.3426 10.2038 19.9892 9.91916 19.9892 9.10392V1.48954C19.9892 0.511852 19.7302 0.0766602 18.9473 0.0766602H13.1353C12.5481 0.0766602 12.1947 0.529737 12.1947 0.960458C12.1947 1.88599 13.5267 2.1006 13.6633 4.70579V10.3663C13.6633 11.6078 13.4478 11.8328 12.9776 11.8328C11.7245 11.8328 8.67624 7.04719 6.867 1.57152C6.51642 0.505891 6.16161 0.0766602 5.21687 0.0766602H1.51815C0.462171 0.0766602 0.250977 0.593824 0.250977 1.16464C0.250977 2.18108 1.50407 7.23051 6.08699 13.9089C9.14228 18.4695 13.4436 20.942 17.362 20.942C19.7119 20.942 20.0019 20.3936 20.0019 19.4472V15.9999C20.0019 14.9015 20.2244 14.6824 20.9692 14.6824C21.5183 14.6824 22.4574 14.9686 24.651 17.1669C27.1572 19.7736 27.5697 20.942 28.9805 20.942H32.6764C33.7324 20.942 34.2618 20.3936 33.9577 19.3086C33.6226 18.2295 32.4258 16.6631 30.839 14.8046C29.9773 13.7465 28.6848 12.6063 28.292 12.0355C27.7443 11.3037 27.9006 10.9773 28.292 10.326C28.292 10.326 32.7975 3.72959 33.2663 1.48954H33.2678Z" fill="white"/>
</svg>
