<svg width="1024" height="112" viewBox="0 0 1024 112" fill="none" xmlns="http://www.w3.org/2000/svg">
<path d="M0 108L1024 108" stroke="black" stroke-width="1.0394"/>
<circle cx="914.5" cy="91.5" r="3.5" fill="black"/>
<line x1="914.52" y1="90" x2="914.52" y2="109" stroke="black" stroke-width="1.0394"/>
<circle cx="270.5" cy="108.5" r="3.5" fill="black"/>
<circle cx="109.5" cy="108.5" r="3.5" fill="black"/>
<circle cx="431.5" cy="108.5" r="3.5" fill="black"/>
<circle cx="592.5" cy="108.5" r="3.5" fill="black"/>
<circle cx="753.5" cy="108.5" r="3.5" fill="black"/>
<path d="M84.8811 97H95.5177V94.7121H90.7358L92.8461 93.8239C93.5093 93.4971 94.0587 93.0992 94.4945 92.6302C94.9351 92.1566 95.1529 91.4934 95.1482 90.6408C95.1387 89.6934 94.7148 88.9213 93.8764 88.3244C93.0379 87.7228 91.7779 87.4221 90.0963 87.4221C88.4858 87.4221 87.2163 87.7465 86.2879 88.3955C85.3595 89.0397 84.8953 89.8947 84.8953 90.9605V91.3158H88.4408V90.9747C88.4408 90.4821 88.5758 90.1837 88.8458 90.0794C89.1206 89.9705 89.5279 89.916 90.0679 89.916C90.5463 89.916 90.9111 89.9539 91.1621 90.0297C91.4179 90.1008 91.5482 90.3281 91.5529 90.7118C91.5529 91.0197 91.425 91.285 91.1692 91.5076C90.9182 91.7302 90.6008 91.9316 90.2171 92.1116L84.8811 94.9963V97ZM96.6494 91.6497C96.6494 93.4781 97.1681 94.8566 98.2055 95.785C99.2429 96.7087 100.735 97.1705 102.682 97.1705C104.524 97.1705 105.993 96.7253 107.087 95.8347C108.181 94.9395 108.728 93.5492 108.728 91.6639V92.7439C108.728 90.9297 108.205 89.5915 107.158 88.7294C106.111 87.8626 104.619 87.4292 102.682 87.4292C100.759 87.4292 99.2713 87.8721 98.2197 88.7579C97.1728 89.6436 96.6494 90.9747 96.6494 92.751V91.6497ZM100.23 91.6994V92.6942C100.23 91.7137 100.434 91.0126 100.842 90.591C101.254 90.1647 101.869 89.9515 102.689 89.9515C103.499 89.9515 104.112 90.1647 104.529 90.591C104.946 91.0126 105.154 91.716 105.154 92.7013V91.7137C105.154 92.751 104.951 93.5113 104.543 93.9945C104.136 94.4776 103.518 94.7192 102.689 94.7192C101.85 94.7192 101.23 94.4776 100.827 93.9945C100.429 93.5113 100.23 92.7463 100.23 91.6994ZM114.704 97H118.264V87.5926H115.28L110.718 89.0563V91.9979L114.704 90.7331V97ZM119.58 94.1934C119.58 95.1597 120.066 95.8963 121.037 96.4032C122.008 96.91 123.406 97.1634 125.229 97.1634C127.02 97.1634 128.401 96.91 129.372 96.4032C130.347 95.8963 130.835 95.1597 130.835 94.1934C130.835 93.5824 130.57 93.1063 130.039 92.7652C129.509 92.4242 128.926 92.211 128.292 92.1258V92.0973C128.936 91.9458 129.462 91.6994 129.869 91.3584C130.276 91.0126 130.48 90.5129 130.48 89.8592C130.48 89.1723 130.021 88.5968 129.102 88.1326C128.187 87.6684 126.897 87.4363 125.229 87.4363C123.524 87.4363 122.217 87.6636 121.307 88.1184C120.398 88.5731 119.943 89.1558 119.943 89.8663C119.943 90.5105 120.147 91.0031 120.554 91.3442C120.966 91.6805 121.52 91.9339 122.217 92.1044V92.1329C121.591 92.2323 120.994 92.4502 120.426 92.7866C119.862 93.1181 119.58 93.5871 119.58 94.1934ZM123.147 93.895C123.147 93.5492 123.318 93.3289 123.659 93.2342C124.005 93.1395 124.531 93.0921 125.236 93.0921C125.933 93.0921 126.444 93.1418 126.771 93.2413C127.103 93.3408 127.268 93.561 127.268 93.9021C127.268 94.2763 127.091 94.525 126.736 94.6481C126.385 94.7713 125.883 94.8329 125.229 94.8329C124.566 94.8329 124.052 94.7737 123.687 94.6553C123.327 94.5368 123.147 94.2834 123.147 93.895ZM123.361 90.5129C123.361 90.2334 123.531 90.0463 123.872 89.9515C124.213 89.8568 124.666 89.8094 125.229 89.8094C125.783 89.8094 126.224 89.8592 126.551 89.9586C126.882 90.0581 127.048 90.2429 127.048 90.5129C127.048 90.8681 126.906 91.0979 126.622 91.2021C126.338 91.3016 125.876 91.3513 125.236 91.3513C124.583 91.3513 124.107 91.3016 123.808 91.2021C123.51 91.0979 123.361 90.8681 123.361 90.5129Z" fill="black"/>
<path d="M245.881 97H256.518V94.7121H251.736L253.846 93.8239C254.509 93.4971 255.059 93.0992 255.495 92.6302C255.935 92.1566 256.153 91.4934 256.148 90.6408C256.139 89.6934 255.715 88.9213 254.876 88.3244C254.038 87.7228 252.778 87.4221 251.096 87.4221C249.486 87.4221 248.216 87.7465 247.288 88.3955C246.359 89.0397 245.895 89.8947 245.895 90.9605V91.3158H249.441V90.9747C249.441 90.4821 249.576 90.1837 249.846 90.0794C250.121 89.9705 250.528 89.916 251.068 89.916C251.546 89.916 251.911 89.9539 252.162 90.0297C252.418 90.1008 252.548 90.3281 252.553 90.7118C252.553 91.0197 252.425 91.285 252.169 91.5076C251.918 91.7302 251.601 91.9316 251.217 92.1116L245.881 94.9963V97ZM257.649 91.6497C257.649 93.4781 258.168 94.8566 259.205 95.785C260.243 96.7087 261.735 97.1705 263.682 97.1705C265.524 97.1705 266.993 96.7253 268.087 95.8347C269.181 94.9395 269.728 93.5492 269.728 91.6639V92.7439C269.728 90.9297 269.205 89.5915 268.158 88.7294C267.111 87.8626 265.619 87.4292 263.682 87.4292C261.759 87.4292 260.271 87.8721 259.22 88.7579C258.173 89.6436 257.649 90.9747 257.649 92.751V91.6497ZM261.23 91.6994V92.6942C261.23 91.7137 261.434 91.0126 261.842 90.591C262.254 90.1647 262.869 89.9515 263.689 89.9515C264.499 89.9515 265.112 90.1647 265.529 90.591C265.946 91.0126 266.154 91.716 266.154 92.7013V91.7137C266.154 92.751 265.951 93.5113 265.543 93.9945C265.136 94.4776 264.518 94.7192 263.689 94.7192C262.85 94.7192 262.23 94.4776 261.827 93.9945C261.429 93.5113 261.23 92.7463 261.23 91.6994ZM275.122 97H278.682V87.5926H275.697L271.136 89.0563V91.9979L275.122 90.7331V97ZM280.621 90.8894C280.617 91.9031 281 92.6445 281.772 93.1134C282.549 93.5824 283.62 93.8168 284.984 93.8168C285.936 93.8168 286.884 93.5871 287.826 93.1276C288.769 92.6634 289.24 91.8273 289.24 90.6194H288.643C288.643 91.2163 288.442 91.6047 288.039 91.7847C287.637 91.96 287.061 92.0476 286.313 92.0476C285.588 92.0476 285.053 91.9766 284.707 91.8344C284.361 91.6923 284.188 91.4129 284.188 90.996C284.188 90.5697 284.378 90.276 284.757 90.115C285.14 89.9492 285.683 89.8663 286.384 89.8663C287.094 89.8663 287.651 89.9563 288.054 90.1363C288.456 90.3163 288.658 90.6526 288.658 91.1452V91.2873C288.658 92.8363 288.148 93.8358 287.13 94.2858C286.116 94.731 284.591 94.9537 282.554 94.9537H282.177V97.6111H282.646C285.792 97.5968 288.17 97.0947 289.78 96.1047C291.391 95.1147 292.196 93.6866 292.196 91.8202V91.5929C292.196 90.1908 291.665 89.151 290.604 88.4736C289.543 87.7915 288.153 87.4505 286.434 87.4505C284.714 87.4505 283.314 87.7678 282.234 88.4026C281.159 89.0326 280.621 89.8615 280.621 90.8894Z" fill="black"/>
<path d="M406.881 97H417.518V94.7121H412.736L414.846 93.8239C415.509 93.4971 416.059 93.0992 416.495 92.6302C416.935 92.1566 417.153 91.4934 417.148 90.6408C417.139 89.6934 416.715 88.9213 415.876 88.3244C415.038 87.7228 413.778 87.4221 412.096 87.4221C410.486 87.4221 409.216 87.7465 408.288 88.3955C407.359 89.0397 406.895 89.8947 406.895 90.9605V91.3158H410.441V90.9747C410.441 90.4821 410.576 90.1837 410.846 90.0794C411.121 89.9705 411.528 89.916 412.068 89.916C412.546 89.916 412.911 89.9539 413.162 90.0297C413.418 90.1008 413.548 90.3281 413.553 90.7118C413.553 91.0197 413.425 91.285 413.169 91.5076C412.918 91.7302 412.601 91.9316 412.217 92.1116L406.881 94.9963V97ZM418.649 91.6497C418.649 93.4781 419.168 94.8566 420.205 95.785C421.243 96.7087 422.735 97.1705 424.682 97.1705C426.524 97.1705 427.993 96.7253 429.087 95.8347C430.181 94.9395 430.728 93.5492 430.728 91.6639V92.7439C430.728 90.9297 430.205 89.5915 429.158 88.7294C428.111 87.8626 426.619 87.4292 424.682 87.4292C422.759 87.4292 421.271 87.8721 420.22 88.7579C419.173 89.6436 418.649 90.9747 418.649 92.751V91.6497ZM422.23 91.6994V92.6942C422.23 91.7137 422.434 91.0126 422.842 90.591C423.254 90.1647 423.869 89.9515 424.689 89.9515C425.499 89.9515 426.112 90.1647 426.529 90.591C426.946 91.0126 427.154 91.716 427.154 92.7013V91.7137C427.154 92.751 426.951 93.5113 426.543 93.9945C426.136 94.4776 425.518 94.7192 424.689 94.7192C423.85 94.7192 423.23 94.4776 422.827 93.9945C422.429 93.5113 422.23 92.7463 422.23 91.6994ZM431.29 97H441.927V94.7121H437.145L439.255 93.8239C439.919 93.4971 440.468 93.0992 440.904 92.6302C441.344 92.1566 441.562 91.4934 441.557 90.6408C441.548 89.6934 441.124 88.9213 440.286 88.3244C439.447 87.7228 438.187 87.4221 436.506 87.4221C434.895 87.4221 433.626 87.7465 432.697 88.3955C431.769 89.0397 431.305 89.8947 431.305 90.9605V91.3158H434.85V90.9747C434.85 90.4821 434.985 90.1837 435.255 90.0794C435.53 89.9705 435.937 89.916 436.477 89.916C436.956 89.916 437.32 89.9539 437.571 90.0297C437.827 90.1008 437.957 90.3281 437.962 90.7118C437.962 91.0197 437.834 91.285 437.579 91.5076C437.327 91.7302 437.01 91.9316 436.626 92.1116L431.29 94.9963V97ZM442.695 91.6497C442.695 93.4781 443.214 94.8566 444.251 95.785C445.288 96.7087 446.78 97.1705 448.727 97.1705C450.57 97.1705 452.038 96.7253 453.133 95.8347C454.227 94.9395 454.774 93.5492 454.774 91.6639V92.7439C454.774 90.9297 454.25 89.5915 453.204 88.7294C452.157 87.8626 450.665 87.4292 448.727 87.4292C446.804 87.4292 445.317 87.8721 444.265 88.7579C443.218 89.6436 442.695 90.9747 442.695 92.751V91.6497ZM446.276 91.6994V92.6942C446.276 91.7137 446.48 91.0126 446.887 90.591C447.299 90.1647 447.915 89.9515 448.734 89.9515C449.544 89.9515 450.158 90.1647 450.575 90.591C450.992 91.0126 451.2 91.716 451.2 92.7013V91.7137C451.2 92.751 450.996 93.5113 450.589 93.9945C450.182 94.4776 449.563 94.7192 448.734 94.7192C447.896 94.7192 447.275 94.4776 446.873 93.9945C446.475 93.5113 446.276 92.7463 446.276 91.6994Z" fill="black"/>
<path d="M567.881 97H578.518V94.7121H573.736L575.846 93.8239C576.509 93.4971 577.059 93.0992 577.495 92.6302C577.935 92.1566 578.153 91.4934 578.148 90.6408C578.139 89.6934 577.715 88.9213 576.876 88.3244C576.038 87.7228 574.778 87.4221 573.096 87.4221C571.486 87.4221 570.216 87.7465 569.288 88.3955C568.359 89.0397 567.895 89.8947 567.895 90.9605V91.3158H571.441V90.9747C571.441 90.4821 571.576 90.1837 571.846 90.0794C572.121 89.9705 572.528 89.916 573.068 89.916C573.546 89.916 573.911 89.9539 574.162 90.0297C574.418 90.1008 574.548 90.3281 574.553 90.7118C574.553 91.0197 574.425 91.285 574.169 91.5076C573.918 91.7302 573.601 91.9316 573.217 92.1116L567.881 94.9963V97ZM579.649 91.6497C579.649 93.4781 580.168 94.8566 581.205 95.785C582.243 96.7087 583.735 97.1705 585.682 97.1705C587.524 97.1705 588.993 96.7253 590.087 95.8347C591.181 94.9395 591.728 93.5492 591.728 91.6639V92.7439C591.728 90.9297 591.205 89.5915 590.158 88.7294C589.111 87.8626 587.619 87.4292 585.682 87.4292C583.759 87.4292 582.271 87.8721 581.22 88.7579C580.173 89.6436 579.649 90.9747 579.649 92.751V91.6497ZM583.23 91.6994V92.6942C583.23 91.7137 583.434 91.0126 583.842 90.591C584.254 90.1647 584.869 89.9515 585.689 89.9515C586.499 89.9515 587.112 90.1647 587.529 90.591C587.946 91.0126 588.154 91.716 588.154 92.7013V91.7137C588.154 92.751 587.951 93.5113 587.543 93.9945C587.136 94.4776 586.518 94.7192 585.689 94.7192C584.85 94.7192 584.23 94.4776 583.827 93.9945C583.429 93.5113 583.23 92.7463 583.23 91.6994ZM592.872 97H603.509V94.7121H598.727L600.837 93.8239C601.501 93.4971 602.05 93.0992 602.486 92.6302C602.926 92.1566 603.144 91.4934 603.14 90.6408C603.13 89.6934 602.706 88.9213 601.868 88.3244C601.029 87.7228 599.769 87.4221 598.088 87.4221C596.477 87.4221 595.208 87.7465 594.279 88.3955C593.351 89.0397 592.887 89.8947 592.887 90.9605V91.3158H596.432V90.9747C596.432 90.4821 596.567 90.1837 596.837 90.0794C597.112 89.9705 597.519 89.916 598.059 89.916C598.538 89.916 598.902 89.9539 599.153 90.0297C599.409 90.1008 599.54 90.3281 599.544 90.7118C599.544 91.0197 599.416 91.285 599.161 91.5076C598.91 91.7302 598.592 91.9316 598.208 92.1116L592.872 94.9963V97ZM610.309 97H613.869V87.5926H610.884L606.323 89.0563V91.9979L610.309 90.7331V97Z" fill="black"/>
<path d="M728.881 97H739.518V94.7121H734.736L736.846 93.8239C737.509 93.4971 738.059 93.0992 738.495 92.6302C738.935 92.1566 739.153 91.4934 739.148 90.6408C739.139 89.6934 738.715 88.9213 737.876 88.3244C737.038 87.7228 735.778 87.4221 734.096 87.4221C732.486 87.4221 731.216 87.7465 730.288 88.3955C729.359 89.0397 728.895 89.8947 728.895 90.9605V91.3158H732.441V90.9747C732.441 90.4821 732.576 90.1837 732.846 90.0794C733.121 89.9705 733.528 89.916 734.068 89.916C734.546 89.916 734.911 89.9539 735.162 90.0297C735.418 90.1008 735.548 90.3281 735.553 90.7118C735.553 91.0197 735.425 91.285 735.169 91.5076C734.918 91.7302 734.601 91.9316 734.217 92.1116L728.881 94.9963V97ZM740.649 91.6497C740.649 93.4781 741.168 94.8566 742.205 95.785C743.243 96.7087 744.735 97.1705 746.682 97.1705C748.524 97.1705 749.993 96.7253 751.087 95.8347C752.181 94.9395 752.728 93.5492 752.728 91.6639V92.7439C752.728 90.9297 752.205 89.5915 751.158 88.7294C750.111 87.8626 748.619 87.4292 746.682 87.4292C744.759 87.4292 743.271 87.8721 742.22 88.7579C741.173 89.6436 740.649 90.9747 740.649 92.751V91.6497ZM744.23 91.6994V92.6942C744.23 91.7137 744.434 91.0126 744.842 90.591C745.254 90.1647 745.869 89.9515 746.689 89.9515C747.499 89.9515 748.112 90.1647 748.529 90.591C748.946 91.0126 749.154 91.716 749.154 92.7013V91.7137C749.154 92.751 748.951 93.5113 748.543 93.9945C748.136 94.4776 747.518 94.7192 746.689 94.7192C745.85 94.7192 745.23 94.4776 744.827 93.9945C744.429 93.5113 744.23 92.7463 744.23 91.6994ZM753.872 97H764.509V94.7121H759.727L761.837 93.8239C762.501 93.4971 763.05 93.0992 763.486 92.6302C763.926 92.1566 764.144 91.4934 764.14 90.6408C764.13 89.6934 763.706 88.9213 762.868 88.3244C762.029 87.7228 760.769 87.4221 759.088 87.4221C757.477 87.4221 756.208 87.7465 755.279 88.3955C754.351 89.0397 753.887 89.8947 753.887 90.9605V91.3158H757.432V90.9747C757.432 90.4821 757.567 90.1837 757.837 90.0794C758.112 89.9705 758.519 89.916 759.059 89.916C759.538 89.916 759.902 89.9539 760.153 90.0297C760.409 90.1008 760.54 90.3281 760.544 90.7118C760.544 91.0197 760.416 91.285 760.161 91.5076C759.91 91.7302 759.592 91.9316 759.208 92.1116L753.872 94.9963V97ZM765.313 97H775.95V94.7121H771.168L773.278 93.8239C773.941 93.4971 774.491 93.0992 774.927 92.6302C775.367 92.1566 775.585 91.4934 775.58 90.6408C775.571 89.6934 775.147 88.9213 774.308 88.3244C773.47 87.7228 772.21 87.4221 770.528 87.4221C768.918 87.4221 767.648 87.7465 766.72 88.3955C765.791 89.0397 765.327 89.8947 765.327 90.9605V91.3158H768.873V90.9747C768.873 90.4821 769.008 90.1837 769.278 90.0794C769.553 89.9705 769.96 89.916 770.5 89.916C770.978 89.916 771.343 89.9539 771.594 90.0297C771.85 90.1008 771.98 90.3281 771.985 90.7118C771.985 91.0197 771.857 91.285 771.601 91.5076C771.35 91.7302 771.033 91.9316 770.649 92.1116L765.313 94.9963V97Z" fill="black"/>
<path d="M891.881 76H902.518V73.7121H897.736L899.846 72.8239C900.509 72.4971 901.059 72.0992 901.495 71.6302C901.935 71.1566 902.153 70.4934 902.148 69.6408C902.139 68.6934 901.715 67.9213 900.876 67.3244C900.038 66.7228 898.778 66.4221 897.096 66.4221C895.486 66.4221 894.216 66.7465 893.288 67.3955C892.359 68.0397 891.895 68.8947 891.895 69.9605V70.3158H895.441V69.9747C895.441 69.4821 895.576 69.1837 895.846 69.0794C896.121 68.9705 896.528 68.916 897.068 68.916C897.546 68.916 897.911 68.9539 898.162 69.0297C898.418 69.1008 898.548 69.3281 898.553 69.7118C898.553 70.0197 898.425 70.285 898.169 70.5076C897.918 70.7302 897.601 70.9316 897.217 71.1116L891.881 73.9963V76ZM903.649 70.6497C903.649 72.4781 904.168 73.8566 905.205 74.785C906.243 75.7087 907.735 76.1705 909.682 76.1705C911.524 76.1705 912.993 75.7253 914.087 74.8347C915.181 73.9395 915.728 72.5492 915.728 70.6639V71.7439C915.728 69.9297 915.205 68.5915 914.158 67.7294C913.111 66.8626 911.619 66.4292 909.682 66.4292C907.759 66.4292 906.271 66.8721 905.22 67.7579C904.173 68.6436 903.649 69.9747 903.649 71.751V70.6497ZM907.23 70.6994V71.6942C907.23 70.7137 907.434 70.0126 907.842 69.591C908.254 69.1647 908.869 68.9515 909.689 68.9515C910.499 68.9515 911.112 69.1647 911.529 69.591C911.946 70.0126 912.154 70.716 912.154 71.7013V70.7137C912.154 71.751 911.951 72.5113 911.543 72.9945C911.136 73.4776 910.518 73.7192 909.689 73.7192C908.85 73.7192 908.23 73.4776 907.827 72.9945C907.429 72.5113 907.23 71.7463 907.23 70.6994ZM916.872 76H927.509V73.7121H922.727L924.837 72.8239C925.501 72.4971 926.05 72.0992 926.486 71.6302C926.926 71.1566 927.144 70.4934 927.14 69.6408C927.13 68.6934 926.706 67.9213 925.868 67.3244C925.029 66.7228 923.769 66.4221 922.088 66.4221C920.477 66.4221 919.208 66.7465 918.279 67.3955C917.351 68.0397 916.887 68.8947 916.887 69.9605V70.3158H920.432V69.9747C920.432 69.4821 920.567 69.1837 920.837 69.0794C921.112 68.9705 921.519 68.916 922.059 68.916C922.538 68.916 922.902 68.9539 923.153 69.0297C923.409 69.1008 923.54 69.3281 923.544 69.7118C923.544 70.0197 923.416 70.285 923.161 70.5076C922.91 70.7302 922.592 70.9316 922.208 71.1116L916.872 73.9963V76ZM928.355 72.8595C928.355 73.9205 928.888 74.7376 929.954 75.3108C931.02 75.8839 932.382 76.1705 934.04 76.1705C935.802 76.1705 937.173 75.8721 938.154 75.2753C939.134 74.6737 939.624 73.9679 939.624 73.1579C939.624 72.5042 939.371 72.0045 938.864 71.6587C938.362 71.3081 937.744 71.0855 937.01 70.9908V70.9623C937.673 70.7918 938.21 70.555 938.623 70.2518C939.035 69.9439 939.241 69.5271 939.241 69.0013C939.241 68.1818 938.791 67.5471 937.891 67.0971C936.995 66.6471 935.69 66.4221 933.976 66.4221C932.341 66.4221 931.041 66.6778 930.075 67.1894C929.109 67.701 928.625 68.4731 928.625 69.5058V69.9818H931.986V69.6123C931.986 69.366 932.169 69.1765 932.533 69.0439C932.898 68.9113 933.362 68.845 933.926 68.845C934.509 68.845 934.954 68.8947 935.262 68.9942C935.574 69.0889 935.731 69.2334 935.731 69.4276C935.731 69.7165 935.525 69.9202 935.113 70.0387C934.705 70.1571 934.191 70.2163 933.571 70.2163H932.199V72.0068H933.599C934.414 72.0068 935.008 72.0589 935.383 72.1631C935.761 72.2626 935.951 72.4781 935.951 72.8097C935.951 73.1697 935.766 73.4184 935.397 73.5558C935.027 73.6931 934.539 73.7618 933.933 73.7618C933.298 73.7618 932.787 73.6837 932.398 73.5274C932.01 73.371 931.816 73.1129 931.816 72.7529V72.2271H928.355V72.8595Z" fill="black"/>
<path d="M0 32.9999L1024 33.0001" stroke="black" stroke-width="1.0394"/>
<circle cx="109.5" cy="33.5" r="3.5" fill="black"/>
<circle cx="270.5" cy="33.5" r="3.5" fill="black"/>
<circle cx="431.5" cy="33.5" r="3.5" fill="black"/>
<circle cx="592.5" cy="33.5" r="3.5" fill="black"/>
<circle cx="914.5" cy="33.5" r="3.5" fill="black"/>
<circle cx="753.5" cy="33.5" r="3.5" fill="black"/>
<path d="M84.9082 22H95.8726V19.6416H90.9434L93.1187 18.7261C93.8022 18.3892 94.3687 17.979 94.8179 17.4956C95.272 17.0073 95.4966 16.3237 95.4917 15.4448C95.4819 14.4683 95.0449 13.6724 94.1807 13.0571C93.3164 12.437 92.0176 12.127 90.2842 12.127C88.624 12.127 87.3154 12.4614 86.3584 13.1304C85.4014 13.7944 84.9229 14.6758 84.9229 15.7744V16.1406H88.5776V15.7891C88.5776 15.2812 88.7168 14.9736 88.9951 14.8662C89.2783 14.7539 89.6982 14.6978 90.2549 14.6978C90.748 14.6978 91.124 14.7368 91.3828 14.8149C91.6465 14.8882 91.7808 15.1226 91.7856 15.5181C91.7856 15.8354 91.6538 16.1089 91.3901 16.3384C91.1313 16.5679 90.8042 16.7754 90.4087 16.9609L84.9082 19.9346V22ZM97.0392 16.4849C97.0392 18.3696 97.5738 19.7905 98.6432 20.7476C99.7125 21.6997 101.251 22.1758 103.257 22.1758C105.157 22.1758 106.671 21.7168 107.798 20.7988C108.926 19.876 109.49 18.4429 109.49 16.4995V17.6128C109.49 15.7427 108.951 14.3633 107.872 13.4746C106.793 12.5811 105.254 12.1343 103.257 12.1343C101.275 12.1343 99.7418 12.5908 98.6578 13.5039C97.5787 14.417 97.0392 15.7891 97.0392 17.6201V16.4849ZM100.731 16.5361V17.5615C100.731 16.5508 100.941 15.8281 101.36 15.3936C101.785 14.9541 102.42 14.7344 103.265 14.7344C104.1 14.7344 104.732 14.9541 105.162 15.3936C105.591 15.8281 105.806 16.5532 105.806 17.5688V16.5508C105.806 17.6201 105.596 18.4038 105.176 18.9019C104.756 19.3999 104.119 19.6489 103.265 19.6489C102.4 19.6489 101.761 19.3999 101.346 18.9019C100.936 18.4038 100.731 17.6152 100.731 16.5361ZM115.05 22H118.719V12.3027H115.643L110.941 13.8115V16.8438L115.05 15.54V22ZM121.338 22H132.302V19.6416H127.373L129.548 18.7261C130.232 18.3892 130.798 17.979 131.247 17.4956C131.701 17.0073 131.926 16.3237 131.921 15.4448C131.911 14.4683 131.474 13.6724 130.61 13.0571C129.746 12.437 128.447 12.127 126.714 12.127C125.054 12.127 123.745 12.4614 122.788 13.1304C121.831 13.7944 121.352 14.6758 121.352 15.7744V16.1406H125.007V15.7891C125.007 15.2812 125.146 14.9736 125.425 14.8662C125.708 14.7539 126.128 14.6978 126.684 14.6978C127.178 14.6978 127.554 14.7368 127.812 14.8149C128.076 14.8882 128.21 15.1226 128.215 15.5181C128.215 15.8354 128.083 16.1089 127.82 16.3384C127.561 16.5679 127.234 16.7754 126.838 16.9609L121.338 19.9346V22Z" fill="black"/>
<path d="M245.908 22H256.873V19.6416H251.943L254.119 18.7261C254.802 18.3892 255.369 17.979 255.818 17.4956C256.272 17.0073 256.497 16.3237 256.492 15.4448C256.482 14.4683 256.045 13.6724 255.181 13.0571C254.316 12.437 253.018 12.127 251.284 12.127C249.624 12.127 248.315 12.4614 247.358 13.1304C246.401 13.7944 245.923 14.6758 245.923 15.7744V16.1406H249.578V15.7891C249.578 15.2812 249.717 14.9736 249.995 14.8662C250.278 14.7539 250.698 14.6978 251.255 14.6978C251.748 14.6978 252.124 14.7368 252.383 14.8149C252.646 14.8882 252.781 15.1226 252.786 15.5181C252.786 15.8354 252.654 16.1089 252.39 16.3384C252.131 16.5679 251.804 16.7754 251.409 16.9609L245.908 19.9346V22ZM258.039 16.4849C258.039 18.3696 258.574 19.7905 259.643 20.7476C260.712 21.6997 262.251 22.1758 264.257 22.1758C266.157 22.1758 267.671 21.7168 268.798 20.7988C269.926 19.876 270.49 18.4429 270.49 16.4995V17.6128C270.49 15.7427 269.951 14.3633 268.872 13.4746C267.793 12.5811 266.254 12.1343 264.257 12.1343C262.275 12.1343 260.742 12.5908 259.658 13.5039C258.579 14.417 258.039 15.7891 258.039 17.6201V16.4849ZM261.731 16.5361V17.5615C261.731 16.5508 261.941 15.8281 262.36 15.3936C262.785 14.9541 263.42 14.7344 264.265 14.7344C265.1 14.7344 265.732 14.9541 266.162 15.3936C266.591 15.8281 266.806 16.5532 266.806 17.5688V16.5508C266.806 17.6201 266.596 18.4038 266.176 18.9019C265.756 19.3999 265.119 19.6489 264.265 19.6489C263.4 19.6489 262.761 19.3999 262.346 18.9019C261.936 18.4038 261.731 17.6152 261.731 16.5361ZM276.05 22H279.719V12.3027H276.643L271.941 13.8115V16.8438L276.05 15.54V22ZM281.631 18.7627C281.631 19.8564 282.181 20.6987 283.279 21.2896C284.378 21.8804 285.782 22.1758 287.491 22.1758C289.307 22.1758 290.721 21.8682 291.731 21.2529C292.742 20.6328 293.248 19.9053 293.248 19.0703C293.248 18.3965 292.986 17.8813 292.464 17.5249C291.946 17.1636 291.309 16.9341 290.552 16.8364V16.8071C291.236 16.6313 291.79 16.3872 292.215 16.0747C292.64 15.7573 292.852 15.3276 292.852 14.7856C292.852 13.9409 292.388 13.2866 291.46 12.8228C290.538 12.3589 289.192 12.127 287.425 12.127C285.74 12.127 284.4 12.3906 283.404 12.918C282.408 13.4453 281.91 14.2412 281.91 15.3057V15.7964H285.374V15.4155C285.374 15.1616 285.562 14.9663 285.938 14.8296C286.314 14.6929 286.792 14.6245 287.374 14.6245C287.974 14.6245 288.433 14.6758 288.75 14.7783C289.073 14.876 289.234 15.0249 289.234 15.2251C289.234 15.5229 289.021 15.7329 288.597 15.855C288.177 15.9771 287.647 16.0381 287.007 16.0381H285.594V17.8838H287.037C287.876 17.8838 288.489 17.9375 288.875 18.0449C289.266 18.1475 289.461 18.3696 289.461 18.7114C289.461 19.0825 289.271 19.3389 288.89 19.4805C288.509 19.6221 288.006 19.6929 287.381 19.6929C286.727 19.6929 286.199 19.6123 285.799 19.4512C285.398 19.29 285.198 19.0239 285.198 18.6528V18.1108H281.631V18.7627Z" fill="black"/>
<path d="M406.908 22H417.873V19.6416H412.943L415.119 18.7261C415.802 18.3892 416.369 17.979 416.818 17.4956C417.272 17.0073 417.497 16.3237 417.492 15.4448C417.482 14.4683 417.045 13.6724 416.181 13.0571C415.316 12.437 414.018 12.127 412.284 12.127C410.624 12.127 409.315 12.4614 408.358 13.1304C407.401 13.7944 406.923 14.6758 406.923 15.7744V16.1406H410.578V15.7891C410.578 15.2812 410.717 14.9736 410.995 14.8662C411.278 14.7539 411.698 14.6978 412.255 14.6978C412.748 14.6978 413.124 14.7368 413.383 14.8149C413.646 14.8882 413.781 15.1226 413.786 15.5181C413.786 15.8354 413.654 16.1089 413.39 16.3384C413.131 16.5679 412.804 16.7754 412.409 16.9609L406.908 19.9346V22ZM419.039 16.4849C419.039 18.3696 419.574 19.7905 420.643 20.7476C421.712 21.6997 423.251 22.1758 425.257 22.1758C427.157 22.1758 428.671 21.7168 429.798 20.7988C430.926 19.876 431.49 18.4429 431.49 16.4995V17.6128C431.49 15.7427 430.951 14.3633 429.872 13.4746C428.793 12.5811 427.254 12.1343 425.257 12.1343C423.275 12.1343 421.742 12.5908 420.658 13.5039C419.579 14.417 419.039 15.7891 419.039 17.6201V16.4849ZM422.731 16.5361V17.5615C422.731 16.5508 422.941 15.8281 423.36 15.3936C423.785 14.9541 424.42 14.7344 425.265 14.7344C426.1 14.7344 426.732 14.9541 427.162 15.3936C427.591 15.8281 427.806 16.5532 427.806 17.5688V16.5508C427.806 17.6201 427.596 18.4038 427.176 18.9019C426.756 19.3999 426.119 19.6489 425.265 19.6489C424.4 19.6489 423.761 19.3999 423.346 18.9019C422.936 18.4038 422.731 17.6152 422.731 16.5361ZM437.05 22H440.719V12.3027H437.643L432.941 13.8115V16.8438L437.05 15.54V22ZM449.249 22H452.596V12.2002H449.629L442.825 17.7007V20.3667H454.456V17.5615H450.919L450.713 17.73H446.59L449.417 15.562H449.476V19.4365L449.249 19.5391V22Z" fill="black"/>
<path d="M567.908 22H578.873V19.6416H573.943L576.119 18.7261C576.802 18.3892 577.369 17.979 577.818 17.4956C578.272 17.0073 578.497 16.3237 578.492 15.4448C578.482 14.4683 578.045 13.6724 577.181 13.0571C576.316 12.437 575.018 12.127 573.284 12.127C571.624 12.127 570.315 12.4614 569.358 13.1304C568.401 13.7944 567.923 14.6758 567.923 15.7744V16.1406H571.578V15.7891C571.578 15.2812 571.717 14.9736 571.995 14.8662C572.278 14.7539 572.698 14.6978 573.255 14.6978C573.748 14.6978 574.124 14.7368 574.383 14.8149C574.646 14.8882 574.781 15.1226 574.786 15.5181C574.786 15.8354 574.654 16.1089 574.39 16.3384C574.131 16.5679 573.804 16.7754 573.409 16.9609L567.908 19.9346V22ZM580.039 16.4849C580.039 18.3696 580.574 19.7905 581.643 20.7476C582.712 21.6997 584.251 22.1758 586.257 22.1758C588.157 22.1758 589.671 21.7168 590.798 20.7988C591.926 19.876 592.49 18.4429 592.49 16.4995V17.6128C592.49 15.7427 591.951 14.3633 590.872 13.4746C589.793 12.5811 588.254 12.1343 586.257 12.1343C584.275 12.1343 582.742 12.5908 581.658 13.5039C580.579 14.417 580.039 15.7891 580.039 17.6201V16.4849ZM583.731 16.5361V17.5615C583.731 16.5508 583.941 15.8281 584.36 15.3936C584.785 14.9541 585.42 14.7344 586.265 14.7344C587.1 14.7344 587.732 14.9541 588.162 15.3936C588.591 15.8281 588.806 16.5532 588.806 17.5688V16.5508C588.806 17.6201 588.596 18.4038 588.176 18.9019C587.756 19.3999 587.119 19.6489 586.265 19.6489C585.4 19.6489 584.761 19.3999 584.346 18.9019C583.936 18.4038 583.731 17.6152 583.731 16.5361ZM598.05 22H601.719V12.3027H598.643L593.941 13.8115V16.8438L598.05 15.54V22ZM604.102 18.6235C604.092 19.7075 604.619 20.5693 605.684 21.209C606.748 21.8486 608.181 22.1685 609.983 22.1685C611.941 22.1685 613.369 21.834 614.268 21.165C615.171 20.4961 615.623 19.5977 615.623 18.4697C615.623 17.4492 615.217 16.6509 614.407 16.0747C613.596 15.4985 612.471 15.2104 611.03 15.2104C610.19 15.2104 609.5 15.2715 608.958 15.3936C608.416 15.5107 607.979 15.6475 607.646 15.8037L607.83 14.8589H614.729V12.2881H605.244L604.49 17.5688L607.83 18.2427C607.981 18.062 608.228 17.8862 608.569 17.7153C608.911 17.5396 609.387 17.4517 609.998 17.4517C610.637 17.4517 611.123 17.5225 611.455 17.6641C611.787 17.8057 611.953 18.084 611.953 18.499C611.953 18.9043 611.785 19.2021 611.448 19.3926C611.111 19.583 610.618 19.6782 609.968 19.6782C609.26 19.6782 608.699 19.5854 608.284 19.3999C607.874 19.2095 607.668 18.9141 607.668 18.5137V18.1914H604.102V18.6235Z" fill="black"/>
<path d="M728.908 22H739.873V19.6416H734.943L737.119 18.7261C737.802 18.3892 738.369 17.979 738.818 17.4956C739.272 17.0073 739.497 16.3237 739.492 15.4448C739.482 14.4683 739.045 13.6724 738.181 13.0571C737.316 12.437 736.018 12.127 734.284 12.127C732.624 12.127 731.315 12.4614 730.358 13.1304C729.401 13.7944 728.923 14.6758 728.923 15.7744V16.1406H732.578V15.7891C732.578 15.2812 732.717 14.9736 732.995 14.8662C733.278 14.7539 733.698 14.6978 734.255 14.6978C734.748 14.6978 735.124 14.7368 735.383 14.8149C735.646 14.8882 735.781 15.1226 735.786 15.5181C735.786 15.8354 735.654 16.1089 735.39 16.3384C735.131 16.5679 734.804 16.7754 734.409 16.9609L728.908 19.9346V22ZM741.039 16.4849C741.039 18.3696 741.574 19.7905 742.643 20.7476C743.712 21.6997 745.251 22.1758 747.257 22.1758C749.157 22.1758 750.671 21.7168 751.798 20.7988C752.926 19.876 753.49 18.4429 753.49 16.4995V17.6128C753.49 15.7427 752.951 14.3633 751.872 13.4746C750.793 12.5811 749.254 12.1343 747.257 12.1343C745.275 12.1343 743.742 12.5908 742.658 13.5039C741.579 14.417 741.039 15.7891 741.039 17.6201V16.4849ZM744.731 16.5361V17.5615C744.731 16.5508 744.941 15.8281 745.36 15.3936C745.785 14.9541 746.42 14.7344 747.265 14.7344C748.1 14.7344 748.732 14.9541 749.162 15.3936C749.591 15.8281 749.806 16.5532 749.806 17.5688V16.5508C749.806 17.6201 749.596 18.4038 749.176 18.9019C748.756 19.3999 748.119 19.6489 747.265 19.6489C746.4 19.6489 745.761 19.3999 745.346 18.9019C744.936 18.4038 744.731 17.6152 744.731 16.5361ZM759.65 22H763.319V12.3027H760.243L755.541 13.8115V16.8438L759.65 15.54V22ZM765.645 17.8984C765.645 19.3438 766.192 20.418 767.285 21.1211C768.384 21.8193 769.817 22.1685 771.585 22.1685C773.362 22.1685 774.805 21.8486 775.913 21.209C777.022 20.5645 777.578 19.7197 777.583 18.6748C777.588 17.6348 777.19 16.8779 776.389 16.4043C775.589 15.9307 774.487 15.6938 773.086 15.6938C772.105 15.6938 771.128 15.9282 770.156 16.397C769.185 16.8657 768.699 17.7178 768.699 18.9531H769.314C769.314 18.3574 769.519 17.9717 769.929 17.7959C770.344 17.6152 770.94 17.5249 771.717 17.5249C772.464 17.5249 773.015 17.5957 773.372 17.7373C773.728 17.8789 773.906 18.1499 773.906 18.5503C773.906 18.98 773.709 19.2778 773.313 19.4438C772.923 19.605 772.363 19.6855 771.636 19.6855C770.908 19.6855 770.337 19.5903 769.922 19.3999C769.512 19.2095 769.307 18.8628 769.307 18.3599V18.2134C769.307 16.895 769.829 16.0112 770.874 15.562C771.919 15.1128 773.491 14.8882 775.591 14.8882H775.979V12.1489H775.481C772.244 12.1489 769.795 12.6567 768.135 13.6724C766.475 14.688 765.645 16.0186 765.645 17.6641V17.8984Z" fill="black"/>
<path d="M891.881 22H902.518V19.7121H897.736L899.846 18.8239C900.509 18.4971 901.059 18.0992 901.495 17.6302C901.935 17.1566 902.153 16.4934 902.148 15.6408C902.139 14.6934 901.715 13.9213 900.876 13.3244C900.038 12.7228 898.778 12.4221 897.096 12.4221C895.486 12.4221 894.216 12.7465 893.288 13.3955C892.359 14.0397 891.895 14.8947 891.895 15.9605V16.3158H895.441V15.9747C895.441 15.4821 895.576 15.1837 895.846 15.0794C896.121 14.9705 896.528 14.916 897.068 14.916C897.546 14.916 897.911 14.9539 898.162 15.0297C898.418 15.1008 898.548 15.3281 898.553 15.7118C898.553 16.0197 898.425 16.285 898.169 16.5076C897.918 16.7302 897.601 16.9316 897.217 17.1116L891.881 19.9963V22ZM903.649 16.6497C903.649 18.4781 904.168 19.8566 905.205 20.785C906.243 21.7087 907.735 22.1705 909.682 22.1705C911.524 22.1705 912.993 21.7253 914.087 20.8347C915.181 19.9395 915.728 18.5492 915.728 16.6639V17.7439C915.728 15.9297 915.205 14.5915 914.158 13.7294C913.111 12.8626 911.619 12.4292 909.682 12.4292C907.759 12.4292 906.271 12.8721 905.22 13.7579C904.173 14.6436 903.649 15.9747 903.649 17.751V16.6497ZM907.23 16.6994V17.6942C907.23 16.7137 907.434 16.0126 907.842 15.591C908.254 15.1647 908.869 14.9515 909.689 14.9515C910.499 14.9515 911.112 15.1647 911.529 15.591C911.946 16.0126 912.154 16.716 912.154 17.7013V16.7137C912.154 17.751 911.951 18.5113 911.543 18.9945C911.136 19.4776 910.518 19.7192 909.689 19.7192C908.85 19.7192 908.23 19.4776 907.827 18.9945C907.429 18.5113 907.23 17.7463 907.23 16.6994ZM921.704 22H925.264V12.5926H922.28L917.718 14.0563V16.9979L921.704 15.7331V22ZM928.947 22H932.677L937.629 15.3139V12.5784H927.319V15.4134H933.871L928.947 22Z" fill="black"/>
</svg>
