<svg width="88" height="41" viewBox="0 0 88 41" fill="none" xmlns="http://www.w3.org/2000/svg">
<path d="M87.3812 22.5429L83.4534 26.9095C82.5856 27.901 81.6555 28.8361 80.6686 29.709C79.8256 30.4441 79.0938 30.8119 78.4731 30.8124C77.8128 30.8124 77.3487 30.5948 77.0807 30.1595C76.8128 29.7242 76.6375 29.1257 76.5549 28.3639C76.5125 27.5804 76.6361 26.5795 76.9258 25.3612C77.0298 24.9964 77.1592 24.6394 77.3131 24.2928C77.4873 23.8721 77.6886 23.4632 77.9155 23.0685C78.6155 21.8497 79.2291 20.9565 79.7563 20.389C80.2907 19.8168 80.9695 19.3998 81.721 19.1819C82.5037 18.9446 83.607 18.8263 85.0309 18.8268C85.9994 18.8268 86.706 18.7079 87.1505 18.4702C87.5951 18.2324 87.8169 17.8452 87.8158 17.3087C87.8158 16.8549 87.6038 16.4926 87.1815 16.2257C86.7592 15.9588 86.1038 15.8225 85.2168 15.8225C84.1596 15.8068 83.1197 16.0915 82.2175 16.6435C81.3306 17.1877 80.4849 17.9252 79.6805 18.8562C79.7832 17.9698 79.6338 17.2679 79.2321 16.7505C78.8305 16.233 78.1655 15.9754 77.2372 15.9775C76.453 15.9775 75.7777 16.1528 75.2114 16.5032C74.6451 16.8536 74.0317 17.3923 73.3714 18.1192L69.3767 22.5429L66.8079 25.3906C65.6122 26.7329 63.994 28.0442 61.9532 29.3245C61.1471 29.8407 60.2921 30.2759 59.4007 30.6239C58.5854 30.9351 57.8892 31.0899 57.312 31.0883C57.1061 31.0947 56.9043 31.0292 56.7414 30.903C56.6717 30.8537 56.6145 30.7888 56.5745 30.7134C56.5344 30.638 56.5126 30.5542 56.5106 30.4688C56.5106 30.181 56.6911 29.9179 57.052 29.6796C57.4128 29.4413 58.0264 29.0974 58.8928 28.6479C59.595 28.2768 60.2912 27.8745 60.9814 27.4408C61.8152 26.9013 62.6156 26.3118 63.3782 25.6754C64.3266 24.8919 65.0641 24.1486 65.5908 23.4456C66.1098 22.7532 66.5505 22.0054 66.9049 21.2158C67.2767 20.3697 67.4623 19.5535 67.4617 18.7672C67.4617 17.9625 67.2604 17.3068 66.8576 16.8003C66.4549 16.2937 65.8622 16.0409 65.0796 16.042C64.3997 16.042 63.544 16.3933 62.5124 17.0957C61.4809 17.7982 60.3776 18.8404 59.2026 20.2225L60.4711 17.9927C61.0689 17.3942 61.6254 16.8772 62.1407 16.442C63.2543 15.4299 64.0793 14.6091 64.6157 13.9795C65.1522 13.35 65.4204 12.7242 65.4204 12.1023C65.4218 11.7133 65.2785 11.3377 65.0185 11.0486C64.8952 10.8999 64.7381 10.783 64.5603 10.7078C64.3826 10.6325 64.1894 10.601 63.997 10.6161C63.3785 10.658 62.8622 10.8693 62.448 11.2502C62.0339 11.6311 61.6369 12.2713 61.257 13.1707C60.8765 14.068 60.3662 15.477 59.7259 17.3977L55.9253 21.6149L55.0889 22.5429L51.0371 27.0319C49.8822 28.3334 48.8306 29.309 47.8822 29.9587C46.9338 30.6084 45.9952 30.9332 45.0663 30.9332C44.6139 30.9332 44.2421 30.7153 43.9527 30.2803C43.6633 29.8453 43.5206 29.3098 43.5206 28.67C43.5206 27.9055 43.6753 27.0332 43.9845 26.0533C44.3037 25.0536 44.7733 24.1085 45.3769 23.2505L46.2737 23.0057C47.9042 22.5704 49.2702 22.1574 50.3719 21.7667C51.4124 21.4073 52.3888 20.8838 53.2644 20.216C54.0888 19.5766 54.5011 18.8233 54.5011 17.956C54.5011 17.3561 54.3046 16.8876 53.9141 16.5456C53.5293 16.2084 53.033 16.0266 52.5217 16.0355C50.7282 16.0355 48.1507 18.1616 44.7892 22.4139C44.6742 22.5609 44.5625 22.7127 44.4557 22.8677C43.7492 23.6839 43.0663 24.0904 42.407 24.0871C42.1621 24.0837 41.9203 24.031 41.6961 23.932C41.9842 22.2191 42.1282 20.9293 42.1282 20.0625C42.1282 19.5657 42.0467 18.8429 41.8836 17.8939C41.7809 17.3773 41.5902 16.9757 41.313 16.686C41.0358 16.3962 40.6681 16.2518 40.2149 16.2518C39.7616 16.2518 39.3841 16.4746 39.0866 16.9178C38.789 17.361 38.6341 17.9298 38.6341 18.6089C38.6341 19.4561 38.8194 20.4211 39.1901 21.5039C39.5608 22.5867 40.0249 23.5117 40.5825 24.2789C40.1091 25.1669 39.4284 26.1374 38.5404 27.1902C37.704 28.1967 36.7483 29.0973 35.6944 29.8722C34.6851 30.6046 33.768 30.9705 32.9429 30.97C32.4481 30.97 32.0869 30.8165 31.8595 30.5064C31.632 30.1962 31.5195 29.784 31.5195 29.2674C31.5193 28.4624 31.7325 27.6718 32.1375 26.9764L39.098 14.8969C39.098 14.8969 47.8006 7.4052 48.6265 6.63555C49.5208 5.80141 49.8925 5.19499 50.0556 3.90379C50.1127 3.46224 49.886 2.32693 49.2885 1.73112C48.6909 1.13531 47.8985 0.868416 47.3832 0.868416C46.9088 0.868416 46.4457 1.05369 45.9908 1.42505C45.5359 1.79641 45.0655 2.41589 44.5699 3.28349L38.1083 14.7402L36.468 16.5685C35.1283 18.0545 34.0098 19.298 33.1125 20.2992C32.2152 21.3004 31.5399 22.0486 31.0866 22.5437C30.5149 23.173 29.8593 23.7203 29.1382 24.1704C28.3789 24.6532 27.5698 25.053 26.7251 25.3628V25.2387C26.7349 24.421 26.6468 23.6049 26.4626 22.8082C26.2453 21.963 25.9821 21.1304 25.6743 20.3139C25.4166 19.6729 25.1988 19.0165 25.0221 18.3485C24.8766 17.7665 24.8048 17.1684 24.8085 16.5685C24.8085 16.0934 25.0139 15.6486 25.4264 15.2373C25.839 14.8259 26.5197 14.2668 27.4645 13.5641C28.3343 12.9722 29.1656 12.3256 29.9535 11.6281C30.6343 11.0007 31.2044 10.2625 31.6394 9.44484C32.1138 8.57805 32.3513 7.57715 32.3519 6.44211C32.3519 4.41798 31.5578 2.8384 29.9698 1.70337C28.3817 0.568334 26.3311 0.00054412 23.818 0C19.7749 0 15.9137 1.1821 12.2343 3.5463C8.5807 5.88043 5.53715 9.05483 3.35715 12.8051C1.11905 16.6133 0 20.5514 0 24.6193C0 26.8697 0.41251 28.6604 1.23753 29.9914C2.06255 31.3223 3.23812 31.988 4.76425 31.9886C5.38329 31.9886 6.07896 31.8079 6.85126 31.4466C7.65098 31.0663 8.36242 30.5228 8.9399 29.851C9.80568 28.8601 10.878 27.2708 12.1568 25.0829L13.0536 23.5321C14.3514 21.1978 15.3824 19.412 16.1466 18.1747L16.5787 17.4001C17.5896 15.666 18.4453 14.2619 19.1459 13.1878C19.8833 12.07 20.7167 11.0186 21.6364 10.0455C22.5841 9.03233 23.6728 8.16121 24.8688 7.45907C25.3422 7.17069 25.6928 6.85619 25.9205 6.51557C26.1471 6.17359 26.2604 5.83977 26.2604 5.5084C26.261 5.31307 26.2229 5.11956 26.1485 4.939C26.0741 4.75843 25.9648 4.59437 25.8268 4.45625C25.6889 4.31813 25.525 4.20868 25.3446 4.13417C25.1643 4.05967 24.971 4.0216 24.7759 4.02214C24.507 4.02247 24.2419 4.08623 24.0022 4.20823C23.7056 4.35084 23.4297 4.53316 23.1821 4.75017C22.9661 4.94524 22.6978 5.28722 22.3791 5.77203C22.0603 6.25684 21.5802 7.03629 20.9402 8.10957L15.1259 18.178C14.7966 18.7547 14.4925 19.2809 14.2137 19.7565C13.9349 20.232 13.6925 20.6553 13.4865 21.0264C12.9919 21.9357 12.3011 23.1327 11.4141 24.6176L11.0432 25.2363C10.366 26.3735 9.84019 27.2259 9.46572 27.7934C9.11495 28.3346 8.72186 28.8472 8.29015 29.3262C7.78667 29.8786 7.18304 30.3303 6.5113 30.6574C5.85911 30.9659 5.28709 31.1207 4.79523 31.1218C3.55824 31.1218 2.60985 30.5385 1.95005 29.3719C1.29025 28.2053 0.96035 26.6105 0.96035 24.5874C0.96035 20.747 2.04244 16.9896 4.20663 13.3152C6.31749 9.69949 9.24041 6.62564 12.7438 4.33718C16.2716 2.02522 19.963 0.86896 23.818 0.868416C25.3224 0.868416 26.6577 1.09531 27.8241 1.54911C28.9904 2.00291 29.892 2.65313 30.529 3.49978C31.1687 4.34806 31.4888 5.33918 31.4894 6.47313C31.4894 7.46397 31.2831 8.33646 30.8706 9.09062C30.4814 9.81405 29.9685 10.4635 29.3551 11.0095C28.6227 11.6411 27.8586 12.2349 27.0659 12.7887C26.0153 13.5315 25.2316 14.1716 24.7147 14.7092C24.1979 15.2468 23.9403 15.8665 23.9419 16.5685C23.9359 17.1991 24.0084 17.8281 24.1579 18.4408C24.3456 19.1397 24.5726 19.8275 24.8378 20.5008C25.1381 21.2753 25.3963 22.0654 25.6115 22.8677C25.8077 23.6638 25.9014 24.4817 25.8903 25.3016V25.6419C25.2512 25.8291 24.2305 26.0669 22.8283 26.3553C21.4261 26.6437 20.2918 26.8706 19.4255 27.036C18.3325 27.2226 17.42 27.527 16.6879 27.9493C15.9558 28.3715 15.5898 28.8931 15.5898 29.5139C15.5898 30.2169 15.9159 30.8054 16.5681 31.2793C17.2203 31.7532 18.1018 31.9905 19.2127 31.991C21.2339 31.991 22.9144 31.4741 24.2541 30.4403C25.5938 29.4064 26.3879 28.0333 26.6363 26.321C27.4963 26.0138 28.3205 25.614 29.0942 25.1286C30.0115 24.5362 30.8852 23.8789 31.7087 23.1616L36.1004 18.2384L31.4617 26.2582C30.8432 27.3116 30.5334 28.3234 30.5323 29.2935C30.5323 30.0787 30.744 30.7085 31.1673 31.183C31.5907 31.6575 32.1524 31.895 32.8524 31.8955C33.8226 31.8955 34.8794 31.4874 36.0229 30.6712C37.1962 29.8302 38.2611 28.8472 39.1934 27.7444C40.1624 26.611 40.8844 25.5998 41.3594 24.7107C41.6654 24.8693 42.0046 24.9532 42.3491 24.9555C42.7391 24.9504 43.1232 24.8604 43.475 24.6919C43.3706 24.9422 43.2736 25.2004 43.184 25.4665C42.7993 26.588 42.6004 27.7649 42.5953 28.9507C42.5803 29.6867 42.8151 30.4061 43.2614 30.9912C43.7038 31.5679 44.3171 31.8569 45.1014 31.858C46.1541 31.858 47.1802 31.5228 48.1797 30.8524C49.1792 30.1821 50.3597 29.0938 51.7211 27.5877L55.7101 23.1583C56.0606 22.7464 56.7207 22.0135 57.6903 20.9595L46.3666 40.5984L47.2023 41L55.0571 27.342C56.1923 25.4418 57.4696 23.6304 58.8781 21.9234C60.1863 20.3531 61.382 19.1451 62.4651 18.2996C63.5483 17.454 64.4095 17.0307 65.0486 17.0296C65.5437 17.0296 65.9095 17.1844 66.1459 17.494C66.3824 17.8042 66.5022 18.218 66.5022 18.733C66.5022 19.3941 66.3372 20.1169 66.0073 20.9016C65.7165 21.5591 65.3534 22.1822 64.9247 22.7592C64.4698 23.3784 63.7994 24.0803 62.9135 24.8649C62.3157 25.3813 61.7385 25.8405 61.1819 26.2426C60.6712 26.6169 60.1336 26.953 59.5735 27.2482C59.0572 27.517 58.7376 27.6927 58.6148 27.7754C58.0984 28.0442 57.5982 28.3283 57.1139 28.6275C56.6971 28.872 56.317 29.1742 55.9848 29.5253C55.7317 29.787 55.5879 30.1356 55.5829 30.4998C55.5799 30.697 55.6232 30.8922 55.7091 31.0696C55.795 31.2471 55.9213 31.4019 56.0777 31.5217C56.4098 31.7913 56.8267 31.9342 57.2541 31.9249C57.8917 31.9249 58.6284 31.7856 59.4642 31.507C60.2913 31.231 61.0845 30.8619 61.8284 30.4068C64.4269 28.7744 66.3019 27.3086 67.4536 26.0092L69.9906 23.1599L73.9812 18.7036C74.6415 17.9603 75.188 17.4649 75.6206 17.2173C76.0532 16.9697 76.5807 16.8462 77.203 16.8468C77.7193 16.8468 78.1115 16.9804 78.3794 17.2475C78.6473 17.5147 78.7808 17.9073 78.7797 18.4253C78.7797 19.0864 78.5427 19.9534 78.0688 21.0264L77.9767 21.1815C77.8723 21.3252 77.3465 22.223 76.3992 23.8749C75.5334 25.4028 74.8114 26.5022 74.2331 27.1731C73.6548 27.844 72.9847 28.2926 72.2227 28.519C71.4591 28.7475 70.3449 28.861 68.8802 28.8593C68.3602 28.8492 67.8491 28.9954 67.4128 29.2788C66.9894 29.5563 66.7777 29.9122 66.7777 30.3464C66.7725 30.56 66.8211 30.7714 66.9192 30.9611C67.0172 31.1509 67.1615 31.3128 67.3386 31.4319C67.7093 31.6985 68.2348 31.8324 68.9153 31.8335C70.1316 31.8335 71.276 31.4618 72.3483 30.7186C73.4206 29.9753 74.5347 28.7056 75.6907 26.9095C75.6327 27.4135 75.6019 27.9202 75.5986 28.4276C75.6075 29.2612 75.8725 30.0719 76.3576 30.7496C76.8402 31.4319 77.5049 31.7728 78.3517 31.7723C78.9903 31.7723 79.6243 31.5761 80.2536 31.1838C80.8838 30.7903 81.4646 30.3226 81.9836 29.7906C82.5102 29.2535 83.2888 28.4175 84.3192 27.2825L88 23.1632L87.3812 22.5429ZM50.3572 18.178C51.3665 17.4347 52.1089 17.0631 52.5845 17.0631C52.8291 17.0552 53.0691 17.1315 53.2644 17.2794C53.4502 17.4235 53.5429 17.6711 53.5424 18.0221C53.5424 18.7871 52.8771 19.4841 51.5467 20.1131C50.2162 20.7421 48.4998 21.3665 46.3976 21.9863C48.0259 20.189 49.3458 18.9196 50.3572 18.178ZM45.9452 2.89418C46.1899 2.54676 46.499 2.24972 46.8558 2.01923C47.3131 1.71071 47.799 1.7907 48.2555 2.05024C48.6534 2.30571 49.1213 2.93743 49.1181 3.61731C49.1181 4.76894 48.6754 5.22519 48.4031 5.49453C48.1308 5.76386 40.2638 12.7487 40.2638 12.7487C40.2638 12.7487 45.8164 3.06721 45.9452 2.89418ZM23.5856 29.8722C22.441 30.708 20.941 31.1258 19.0855 31.1258C18.2611 31.1258 17.6165 30.9915 17.1518 30.7227C16.6871 30.4539 16.455 30.0822 16.4556 29.6078C16.4556 28.803 17.4252 28.2355 19.3643 27.9052C22.5389 27.3475 24.6626 26.9239 25.7354 26.6344C25.4463 27.955 24.7297 29.0343 23.5856 29.8722Z" fill="black"/>
</svg>
