<svg width="35" height="25" viewBox="0 0 35 25" fill="none" xmlns="http://www.w3.org/2000/svg">
<path d="M33.6981 4.42716C33.5068 3.71385 33.1341 3.06806 32.6197 2.55843C32.0908 2.03313 31.4425 1.65737 30.736 1.46662C28.0922 0.738254 17.4999 0.738254 17.4999 0.738254C13.084 0.685742 8.6693 0.916702 4.28056 1.42983C3.57411 1.63468 2.92705 2.01883 2.39692 2.54813C1.87603 3.07196 1.49874 3.71793 1.30165 4.42569C0.828193 7.09157 0.598156 9.79843 0.614638 12.5098C0.597745 15.2187 0.827217 17.9247 1.30165 20.5939C1.49452 21.2987 1.8704 21.9417 2.3927 22.4612C2.91499 22.9806 3.5654 23.3558 4.28056 23.5544C6.95962 24.2813 17.4999 24.2813 17.4999 24.2813C21.9213 24.3339 26.3417 24.103 30.736 23.5898C31.4425 23.399 32.0908 23.0233 32.6197 22.498C33.1339 21.9884 33.5061 21.3425 33.6967 20.6292C34.1825 17.9644 34.4187 15.2564 34.402 12.5436C34.4385 9.81942 34.2026 7.09866 33.6981 4.42569V4.42716ZM14.1324 17.548V7.47305L22.9452 12.5113L14.1324 17.548Z" fill="white"/>
</svg>
