<svg width="738" height="108" viewBox="0 0 738 108" fill="none" xmlns="http://www.w3.org/2000/svg">
<line x1="4.37114e-08" y1="104.5" x2="521" y2="104.5" stroke="black"/>
<circle cx="476.5" cy="88.5" r="3.5" fill="black"/>
<line x1="476.5" y1="87" x2="476.5" y2="105" stroke="black"/>
<circle cx="43.5" cy="104.5" r="3.5" fill="black"/>
<circle cx="151.5" cy="104.5" r="3.5" fill="black"/>
<circle cx="259.5" cy="104.5" r="3.5" fill="black"/>
<circle cx="368.5" cy="104.5" r="3.5" fill="black"/>
<path d="M20.8477 93H31.0811V90.7988H26.4805L28.5107 89.9443C29.1488 89.6299 29.6774 89.2471 30.0967 88.7959C30.5205 88.3402 30.7301 87.7021 30.7256 86.8818C30.7165 85.9704 30.3086 85.2275 29.502 84.6533C28.6953 84.0745 27.4831 83.7852 25.8652 83.7852C24.3158 83.7852 23.0944 84.0973 22.2012 84.7217C21.3079 85.3415 20.8613 86.1641 20.8613 87.1895V87.5312H24.2725V87.2031C24.2725 86.7292 24.4023 86.4421 24.6621 86.3418C24.9264 86.237 25.3184 86.1846 25.8379 86.1846C26.2982 86.1846 26.6491 86.221 26.8906 86.2939C27.1367 86.3623 27.262 86.5811 27.2666 86.9502C27.2666 87.2464 27.1436 87.5016 26.8975 87.7158C26.6559 87.93 26.3506 88.1237 25.9814 88.2969L20.8477 91.0723V93ZM32.1699 87.8525C32.1699 89.6117 32.6689 90.9378 33.667 91.8311C34.665 92.7197 36.1005 93.1641 37.9736 93.1641C39.7464 93.1641 41.1591 92.7357 42.2119 91.8789C43.2646 91.0176 43.791 89.68 43.791 87.8662V88.9053C43.791 87.1598 43.2874 85.8724 42.2802 85.043C41.2731 84.209 39.8375 83.792 37.9736 83.792C36.1233 83.792 34.6923 84.2181 33.6806 85.0703C32.6735 85.9225 32.1699 87.2031 32.1699 88.9121V87.8525ZM35.6152 87.9004V88.8574C35.6152 87.9141 35.8112 87.2396 36.2031 86.834C36.5996 86.4238 37.192 86.2188 37.9804 86.2188C38.7597 86.2188 39.3499 86.4238 39.7509 86.834C40.152 87.2396 40.3525 87.9163 40.3525 88.8643V87.9141C40.3525 88.9121 40.1565 89.6436 39.7646 90.1084C39.3727 90.5732 38.778 90.8057 37.9804 90.8057C37.1738 90.8057 36.5768 90.5732 36.1894 90.1084C35.8066 89.6436 35.6152 88.9076 35.6152 87.9004ZM48.98 93H52.4048V83.9492H49.5337L45.145 85.3574V88.1875L48.98 86.9707V93ZM54.271 87.1211C54.2665 88.0964 54.6356 88.8096 55.3784 89.2607C56.1258 89.7119 57.1558 89.9375 58.4683 89.9375C59.3843 89.9375 60.2958 89.7165 61.2027 89.2744C62.1096 88.8278 62.563 88.0234 62.563 86.8613H61.9888C61.9888 87.4355 61.7951 87.8092 61.4077 87.9824C61.0204 88.151 60.4667 88.2354 59.7466 88.2354C59.0493 88.2354 58.5344 88.167 58.2017 88.0303C57.869 87.8936 57.7027 87.6247 57.7027 87.2236C57.7027 86.8135 57.8849 86.5309 58.2495 86.376C58.6187 86.2165 59.1405 86.1367 59.815 86.1367C60.4986 86.1367 61.034 86.2233 61.4214 86.3965C61.8088 86.5697 62.0025 86.8932 62.0025 87.3672V87.5039C62.0025 88.9941 61.5126 89.9557 60.5327 90.3887C59.5575 90.8171 58.09 91.0312 56.1304 91.0312H55.7681V93.5879H56.2193C59.2453 93.5742 61.5331 93.0911 63.0825 92.1387C64.632 91.1862 65.4068 89.8122 65.4068 88.0166V87.7979C65.4068 86.4489 64.8963 85.4486 63.8755 84.7969C62.8547 84.1406 61.5171 83.8125 59.8628 83.8125C58.2085 83.8125 56.8618 84.1178 55.8228 84.7285C54.7883 85.3346 54.271 86.1322 54.271 87.1211Z" fill="black"/>
<path d="M128.848 93H139.081V90.7988H134.48L136.511 89.9443C137.149 89.6299 137.677 89.2471 138.097 88.7959C138.521 88.3402 138.73 87.7021 138.726 86.8818C138.716 85.9704 138.309 85.2275 137.502 84.6533C136.695 84.0745 135.483 83.7852 133.865 83.7852C132.316 83.7852 131.094 84.0973 130.201 84.7217C129.308 85.3415 128.861 86.1641 128.861 87.1895V87.5312H132.272V87.2031C132.272 86.7292 132.402 86.4421 132.662 86.3418C132.926 86.237 133.318 86.1846 133.838 86.1846C134.298 86.1846 134.649 86.221 134.891 86.2939C135.137 86.3623 135.262 86.5811 135.267 86.9502C135.267 87.2464 135.144 87.5016 134.897 87.7158C134.656 87.93 134.351 88.1237 133.981 88.2969L128.848 91.0723V93ZM140.17 87.8525C140.17 89.6117 140.669 90.9378 141.667 91.8311C142.665 92.7197 144.101 93.1641 145.974 93.1641C147.746 93.1641 149.159 92.7357 150.212 91.8789C151.265 91.0176 151.791 89.68 151.791 87.8662V88.9053C151.791 87.1598 151.287 85.8724 150.28 85.043C149.273 84.209 147.838 83.792 145.974 83.792C144.123 83.792 142.692 84.2181 141.681 85.0703C140.673 85.9225 140.17 87.2031 140.17 88.9121V87.8525ZM143.615 87.9004V88.8574C143.615 87.9141 143.811 87.2396 144.203 86.834C144.6 86.4238 145.192 86.2188 145.98 86.2188C146.76 86.2188 147.35 86.4238 147.751 86.834C148.152 87.2396 148.352 87.9163 148.352 88.8643V87.9141C148.352 88.9121 148.157 89.6436 147.765 90.1084C147.373 90.5732 146.778 90.8057 145.98 90.8057C145.174 90.8057 144.577 90.5732 144.189 90.1084C143.807 89.6436 143.615 88.9076 143.615 87.9004ZM152.332 93H162.565V90.7988H157.964L159.995 89.9443C160.633 89.6299 161.161 89.2471 161.581 88.7959C162.004 88.3402 162.214 87.7021 162.209 86.8818C162.2 85.9704 161.792 85.2275 160.986 84.6533C160.179 84.0745 158.967 83.7852 157.349 83.7852C155.8 83.7852 154.578 84.0973 153.685 84.7217C152.792 85.3415 152.345 86.1641 152.345 87.1895V87.5312H155.756V87.2031C155.756 86.7292 155.886 86.4421 156.146 86.3418C156.41 86.237 156.802 86.1846 157.322 86.1846C157.782 86.1846 158.133 86.221 158.375 86.2939C158.621 86.3623 158.746 86.5811 158.751 86.9502C158.751 87.2464 158.627 87.5016 158.381 87.7158C158.14 87.93 157.834 88.1237 157.465 88.2969L152.332 91.0723V93ZM163.304 87.8525C163.304 89.6117 163.803 90.9378 164.801 91.8311C165.799 92.7197 167.234 93.1641 169.107 93.1641C170.88 93.1641 172.293 92.7357 173.346 91.8789C174.399 91.0176 174.925 89.68 174.925 87.8662V88.9053C174.925 87.1598 174.421 85.8724 173.414 85.043C172.407 84.209 170.971 83.792 169.107 83.792C167.257 83.792 165.826 84.2181 164.815 85.0703C163.807 85.9225 163.304 87.2031 163.304 88.9121V87.8525ZM166.749 87.9004V88.8574C166.749 87.9141 166.945 87.2396 167.337 86.834C167.733 86.4238 168.326 86.2188 169.114 86.2188C169.894 86.2188 170.484 86.4238 170.885 86.834C171.286 87.2396 171.486 87.9163 171.486 88.8643V87.9141C171.486 88.9121 171.29 89.6436 170.899 90.1084C170.507 90.5732 169.912 90.8057 169.114 90.8057C168.308 90.8057 167.711 90.5732 167.323 90.1084C166.941 89.6436 166.749 88.9076 166.749 87.9004Z" fill="black"/>
<path d="M235.848 93H246.081V90.7988H241.48L243.511 89.9443C244.149 89.6299 244.677 89.2471 245.097 88.7959C245.521 88.3402 245.73 87.7021 245.726 86.8818C245.716 85.9704 245.309 85.2275 244.502 84.6533C243.695 84.0745 242.483 83.7852 240.865 83.7852C239.316 83.7852 238.094 84.0973 237.201 84.7217C236.308 85.3415 235.861 86.1641 235.861 87.1895V87.5312H239.272V87.2031C239.272 86.7292 239.402 86.4421 239.662 86.3418C239.926 86.237 240.318 86.1846 240.838 86.1846C241.298 86.1846 241.649 86.221 241.891 86.2939C242.137 86.3623 242.262 86.5811 242.267 86.9502C242.267 87.2464 242.144 87.5016 241.897 87.7158C241.656 87.93 241.351 88.1237 240.981 88.2969L235.848 91.0723V93ZM247.17 87.8525C247.17 89.6117 247.669 90.9378 248.667 91.8311C249.665 92.7197 251.101 93.1641 252.974 93.1641C254.746 93.1641 256.159 92.7357 257.212 91.8789C258.265 91.0176 258.791 89.68 258.791 87.8662V88.9053C258.791 87.1598 258.287 85.8724 257.28 85.043C256.273 84.209 254.838 83.792 252.974 83.792C251.123 83.792 249.692 84.2181 248.681 85.0703C247.673 85.9225 247.17 87.2031 247.17 88.9121V87.8525ZM250.615 87.9004V88.8574C250.615 87.9141 250.811 87.2396 251.203 86.834C251.6 86.4238 252.192 86.2188 252.98 86.2188C253.76 86.2188 254.35 86.4238 254.751 86.834C255.152 87.2396 255.352 87.9163 255.352 88.8643V87.9141C255.352 88.9121 255.157 89.6436 254.765 90.1084C254.373 90.5732 253.778 90.8057 252.98 90.8057C252.174 90.8057 251.577 90.5732 251.189 90.1084C250.807 89.6436 250.615 88.9076 250.615 87.9004ZM259.892 93H270.125V90.7988H265.524L267.555 89.9443C268.193 89.6299 268.721 89.2471 269.141 88.7959C269.564 88.3402 269.774 87.7021 269.769 86.8818C269.76 85.9704 269.353 85.2275 268.546 84.6533C267.739 84.0745 266.527 83.7852 264.909 83.7852C263.36 83.7852 262.138 84.0973 261.245 84.7217C260.352 85.3415 259.905 86.1641 259.905 87.1895V87.5312H263.316V87.2031C263.316 86.7292 263.446 86.4421 263.706 86.3418C263.97 86.237 264.362 86.1846 264.882 86.1846C265.342 86.1846 265.693 86.221 265.935 86.2939C266.181 86.3623 266.306 86.5811 266.311 86.9502C266.311 87.2464 266.187 87.5016 265.941 87.7158C265.7 87.93 265.394 88.1237 265.025 88.2969L259.892 91.0723V93ZM276.667 93H280.092V83.9492H277.221L272.832 85.3574V88.1875L276.667 86.9707V93Z" fill="black"/>
<path d="M345.848 93H356.081V90.7988H351.48L353.511 89.9443C354.149 89.6299 354.677 89.2471 355.097 88.7959C355.521 88.3402 355.73 87.7021 355.726 86.8818C355.716 85.9704 355.309 85.2275 354.502 84.6533C353.695 84.0745 352.483 83.7852 350.865 83.7852C349.316 83.7852 348.094 84.0973 347.201 84.7217C346.308 85.3415 345.861 86.1641 345.861 87.1895V87.5312H349.272V87.2031C349.272 86.7292 349.402 86.4421 349.662 86.3418C349.926 86.237 350.318 86.1846 350.838 86.1846C351.298 86.1846 351.649 86.221 351.891 86.2939C352.137 86.3623 352.262 86.5811 352.267 86.9502C352.267 87.2464 352.144 87.5016 351.897 87.7158C351.656 87.93 351.351 88.1237 350.981 88.2969L345.848 91.0723V93ZM357.17 87.8525C357.17 89.6117 357.669 90.9378 358.667 91.8311C359.665 92.7197 361.101 93.1641 362.974 93.1641C364.746 93.1641 366.159 92.7357 367.212 91.8789C368.265 91.0176 368.791 89.68 368.791 87.8662V88.9053C368.791 87.1598 368.287 85.8724 367.28 85.043C366.273 84.209 364.838 83.792 362.974 83.792C361.123 83.792 359.692 84.2181 358.681 85.0703C357.673 85.9225 357.17 87.2031 357.17 88.9121V87.8525ZM360.615 87.9004V88.8574C360.615 87.9141 360.811 87.2396 361.203 86.834C361.6 86.4238 362.192 86.2188 362.98 86.2188C363.76 86.2188 364.35 86.4238 364.751 86.834C365.152 87.2396 365.352 87.9163 365.352 88.8643V87.9141C365.352 88.9121 365.157 89.6436 364.765 90.1084C364.373 90.5732 363.778 90.8057 362.98 90.8057C362.174 90.8057 361.577 90.5732 361.189 90.1084C360.807 89.6436 360.615 88.9076 360.615 87.9004ZM369.892 93H380.125V90.7988H375.524L377.555 89.9443C378.193 89.6299 378.721 89.2471 379.141 88.7959C379.564 88.3402 379.774 87.7021 379.769 86.8818C379.76 85.9704 379.353 85.2275 378.546 84.6533C377.739 84.0745 376.527 83.7852 374.909 83.7852C373.36 83.7852 372.138 84.0973 371.245 84.7217C370.352 85.3415 369.905 86.1641 369.905 87.1895V87.5312H373.316V87.2031C373.316 86.7292 373.446 86.4421 373.706 86.3418C373.97 86.237 374.362 86.1846 374.882 86.1846C375.342 86.1846 375.693 86.221 375.935 86.2939C376.181 86.3623 376.306 86.5811 376.311 86.9502C376.311 87.2464 376.187 87.5016 375.941 87.7158C375.7 87.93 375.394 88.1237 375.025 88.2969L369.892 91.0723V93ZM380.899 93H391.132V90.7988H386.531L388.562 89.9443C389.2 89.6299 389.728 89.2471 390.148 88.7959C390.571 88.3402 390.781 87.7021 390.776 86.8818C390.767 85.9704 390.359 85.2275 389.553 84.6533C388.746 84.0745 387.534 83.7852 385.916 83.7852C384.367 83.7852 383.145 84.0973 382.252 84.7217C381.359 85.3415 380.912 86.1641 380.912 87.1895V87.5312H384.323V87.2031C384.323 86.7292 384.453 86.4421 384.713 86.3418C384.977 86.237 385.369 86.1846 385.889 86.1846C386.349 86.1846 386.7 86.221 386.941 86.2939C387.188 86.3623 387.313 86.5811 387.317 86.9502C387.317 87.2464 387.194 87.5016 386.948 87.7158C386.707 87.93 386.401 88.1237 386.032 88.2969L380.899 91.0723V93Z" fill="black"/>
<path d="M452.848 74H463.081V71.7988H458.48L460.511 70.9443C461.149 70.6299 461.677 70.2471 462.097 69.7959C462.521 69.3402 462.73 68.7021 462.726 67.8818C462.716 66.9704 462.309 66.2275 461.502 65.6533C460.695 65.0745 459.483 64.7852 457.865 64.7852C456.316 64.7852 455.094 65.0973 454.201 65.7217C453.308 66.3415 452.861 67.1641 452.861 68.1895V68.5312H456.272V68.2031C456.272 67.7292 456.402 67.4421 456.662 67.3418C456.926 67.237 457.318 67.1846 457.838 67.1846C458.298 67.1846 458.649 67.221 458.891 67.2939C459.137 67.3623 459.262 67.5811 459.267 67.9502C459.267 68.2464 459.144 68.5016 458.897 68.7158C458.656 68.93 458.351 69.1237 457.981 69.2969L452.848 72.0723V74ZM464.17 68.8525C464.17 70.6117 464.669 71.9378 465.667 72.8311C466.665 73.7197 468.101 74.1641 469.974 74.1641C471.746 74.1641 473.159 73.7357 474.212 72.8789C475.265 72.0176 475.791 70.68 475.791 68.8662V69.9053C475.791 68.1598 475.287 66.8724 474.28 66.043C473.273 65.209 471.838 64.792 469.974 64.792C468.123 64.792 466.692 65.2181 465.681 66.0703C464.673 66.9225 464.17 68.2031 464.17 69.9121V68.8525ZM467.615 68.9004V69.8574C467.615 68.9141 467.811 68.2396 468.203 67.834C468.6 67.4238 469.192 67.2188 469.98 67.2188C470.76 67.2188 471.35 67.4238 471.751 67.834C472.152 68.2396 472.352 68.9163 472.352 69.8643V68.9141C472.352 69.9121 472.157 70.6436 471.765 71.1084C471.373 71.5732 470.778 71.8057 469.98 71.8057C469.174 71.8057 468.577 71.5732 468.189 71.1084C467.807 70.6436 467.615 69.9076 467.615 68.9004ZM476.892 74H487.125V71.7988H482.524L484.555 70.9443C485.193 70.6299 485.721 70.2471 486.141 69.7959C486.564 69.3402 486.774 68.7021 486.769 67.8818C486.76 66.9704 486.353 66.2275 485.546 65.6533C484.739 65.0745 483.527 64.7852 481.909 64.7852C480.36 64.7852 479.138 65.0973 478.245 65.7217C477.352 66.3415 476.905 67.1641 476.905 68.1895V68.5312H480.316V68.2031C480.316 67.7292 480.446 67.4421 480.706 67.3418C480.97 67.237 481.362 67.1846 481.882 67.1846C482.342 67.1846 482.693 67.221 482.935 67.2939C483.181 67.3623 483.306 67.5811 483.311 67.9502C483.311 68.2464 483.187 68.5016 482.941 68.7158C482.7 68.93 482.394 69.1237 482.025 69.2969L476.892 72.0723V74ZM487.939 70.9785C487.939 71.9993 488.452 72.7855 489.477 73.3369C490.503 73.8883 491.813 74.1641 493.408 74.1641C495.103 74.1641 496.423 73.877 497.366 73.3027C498.309 72.724 498.781 72.0449 498.781 71.2656C498.781 70.6367 498.537 70.1559 498.05 69.8232C497.567 69.486 496.972 69.2718 496.265 69.1807V69.1533C496.903 68.9893 497.421 68.7614 497.817 68.4697C498.214 68.1735 498.412 67.7725 498.412 67.2666C498.412 66.4782 497.979 65.8675 497.113 65.4346C496.252 65.0016 494.996 64.7852 493.346 64.7852C491.774 64.7852 490.523 65.0312 489.594 65.5234C488.664 66.0156 488.199 66.7585 488.199 67.752V68.21H491.432V67.8545C491.432 67.6175 491.608 67.4352 491.959 67.3076C492.31 67.18 492.756 67.1162 493.299 67.1162C493.859 67.1162 494.288 67.1641 494.584 67.2598C494.885 67.3509 495.035 67.4899 495.035 67.6768C495.035 67.9548 494.837 68.1507 494.44 68.2646C494.048 68.3786 493.554 68.4355 492.957 68.4355H491.638V70.1582H492.984C493.768 70.1582 494.34 70.2083 494.7 70.3086C495.065 70.4043 495.247 70.6117 495.247 70.9307C495.247 71.277 495.069 71.5163 494.714 71.6484C494.358 71.7806 493.889 71.8467 493.305 71.8467C492.695 71.8467 492.203 71.7715 491.829 71.6211C491.455 71.4707 491.268 71.2223 491.268 70.876V70.3701H487.939V70.9785Z" fill="black"/>
<line x1="4.37114e-08" y1="32.5" x2="738" y2="32.5001" stroke="black"/>
<circle cx="43.5" cy="32.5" r="3.5" fill="black"/>
<circle cx="151.5" cy="32.5" r="3.5" fill="black"/>
<circle cx="259.5" cy="32.5" r="3.5" fill="black"/>
<circle cx="368.5" cy="32.5" r="3.5" fill="black"/>
<circle cx="584.5" cy="32.5" r="3.5" fill="black"/>
<circle cx="476.5" cy="32.5" r="3.5" fill="black"/>
<circle cx="693.5" cy="32.5" r="3.5" fill="black"/>
<path d="M20.8477 21H31.0811V18.7988H26.4805L28.5107 17.9443C29.1488 17.6299 29.6774 17.2471 30.0967 16.7959C30.5205 16.3402 30.7301 15.7021 30.7256 14.8818C30.7165 13.9704 30.3086 13.2275 29.502 12.6533C28.6953 12.0745 27.4831 11.7852 25.8652 11.7852C24.3158 11.7852 23.0944 12.0973 22.2012 12.7217C21.3079 13.3415 20.8613 14.1641 20.8613 15.1895V15.5312H24.2725V15.2031C24.2725 14.7292 24.4023 14.4421 24.6621 14.3418C24.9264 14.237 25.3184 14.1846 25.8379 14.1846C26.2982 14.1846 26.6491 14.221 26.8906 14.2939C27.1367 14.3623 27.262 14.5811 27.2666 14.9502C27.2666 15.2464 27.1436 15.5016 26.8975 15.7158C26.6559 15.93 26.3506 16.1237 25.9814 16.2969L20.8477 19.0723V21ZM32.1699 15.8525C32.1699 17.6117 32.6689 18.9378 33.667 19.8311C34.665 20.7197 36.1005 21.1641 37.9736 21.1641C39.7464 21.1641 41.1591 20.7357 42.2119 19.8789C43.2646 19.0176 43.791 17.68 43.791 15.8662V16.9053C43.791 15.1598 43.2874 13.8724 42.2802 13.043C41.2731 12.209 39.8375 11.792 37.9736 11.792C36.1233 11.792 34.6923 12.2181 33.6806 13.0703C32.6735 13.9225 32.1699 15.2031 32.1699 16.9121V15.8525ZM35.6152 15.9004V16.8574C35.6152 15.9141 35.8112 15.2396 36.2031 14.834C36.5996 14.4238 37.192 14.2188 37.9804 14.2188C38.7597 14.2188 39.3499 14.4238 39.7509 14.834C40.152 15.2396 40.3525 15.9163 40.3525 16.8643V15.9141C40.3525 16.9121 40.1565 17.6436 39.7646 18.1084C39.3727 18.5732 38.778 18.8057 37.9804 18.8057C37.1738 18.8057 36.5768 18.5732 36.1894 18.1084C35.8066 17.6436 35.6152 16.9076 35.6152 15.9004ZM48.98 21H52.4048V11.9492H49.5337L45.145 13.3574V16.1875L48.98 14.9707V21ZM54.8485 21H65.0819V18.7988H60.4813L62.5116 17.9443C63.1496 17.6299 63.6783 17.2471 64.0975 16.7959C64.5214 16.3402 64.731 15.7021 64.7264 14.8818C64.7173 13.9704 64.3095 13.2275 63.5028 12.6533C62.6962 12.0745 61.4839 11.7852 59.8661 11.7852C58.3166 11.7852 57.0953 12.0973 56.202 12.7217C55.3088 13.3415 54.8622 14.1641 54.8622 15.1895V15.5312H58.2733V15.2031C58.2733 14.7292 58.4032 14.4421 58.663 14.3418C58.9273 14.237 59.3192 14.1846 59.8387 14.1846C60.299 14.1846 60.6499 14.221 60.8915 14.2939C61.1376 14.3623 61.2629 14.5811 61.2675 14.9502C61.2675 15.2464 61.1444 15.5016 60.8983 15.7158C60.6568 15.93 60.3514 16.1237 59.9823 16.2969L54.8485 19.0723V21Z" fill="black"/>
<path d="M128.848 21H139.081V18.7988H134.48L136.511 17.9443C137.149 17.6299 137.677 17.2471 138.097 16.7959C138.521 16.3402 138.73 15.7021 138.726 14.8818C138.716 13.9704 138.309 13.2275 137.502 12.6533C136.695 12.0745 135.483 11.7852 133.865 11.7852C132.316 11.7852 131.094 12.0973 130.201 12.7217C129.308 13.3415 128.861 14.1641 128.861 15.1895V15.5312H132.272V15.2031C132.272 14.7292 132.402 14.4421 132.662 14.3418C132.926 14.237 133.318 14.1846 133.838 14.1846C134.298 14.1846 134.649 14.221 134.891 14.2939C135.137 14.3623 135.262 14.5811 135.267 14.9502C135.267 15.2464 135.144 15.5016 134.897 15.7158C134.656 15.93 134.351 16.1237 133.981 16.2969L128.848 19.0723V21ZM140.17 15.8525C140.17 17.6117 140.669 18.9378 141.667 19.8311C142.665 20.7197 144.101 21.1641 145.974 21.1641C147.746 21.1641 149.159 20.7357 150.212 19.8789C151.265 19.0176 151.791 17.68 151.791 15.8662V16.9053C151.791 15.1598 151.287 13.8724 150.28 13.043C149.273 12.209 147.838 11.792 145.974 11.792C144.123 11.792 142.692 12.2181 141.681 13.0703C140.673 13.9225 140.17 15.2031 140.17 16.9121V15.8525ZM143.615 15.9004V16.8574C143.615 15.9141 143.811 15.2396 144.203 14.834C144.6 14.4238 145.192 14.2188 145.98 14.2188C146.76 14.2188 147.35 14.4238 147.751 14.834C148.152 15.2396 148.352 15.9163 148.352 16.8643V15.9141C148.352 16.9121 148.157 17.6436 147.765 18.1084C147.373 18.5732 146.778 18.8057 145.98 18.8057C145.174 18.8057 144.577 18.5732 144.189 18.1084C143.807 17.6436 143.615 16.9076 143.615 15.9004ZM156.98 21H160.405V11.9492H157.534L153.145 13.3574V16.1875L156.98 14.9707V21ZM162.189 17.9785C162.189 18.9993 162.702 19.7855 163.727 20.3369C164.753 20.8883 166.063 21.1641 167.658 21.1641C169.353 21.1641 170.673 20.877 171.616 20.3027C172.559 19.724 173.031 19.0449 173.031 18.2656C173.031 17.6367 172.787 17.1559 172.3 16.8232C171.817 16.486 171.222 16.2718 170.515 16.1807V16.1533C171.153 15.9893 171.671 15.7614 172.067 15.4697C172.464 15.1735 172.662 14.7725 172.662 14.2666C172.662 13.4782 172.229 12.8675 171.363 12.4346C170.502 12.0016 169.246 11.7852 167.596 11.7852C166.024 11.7852 164.773 12.0312 163.844 12.5234C162.914 13.0156 162.449 13.7585 162.449 14.752V15.21H165.682V14.8545C165.682 14.6175 165.858 14.4352 166.209 14.3076C166.56 14.18 167.006 14.1162 167.549 14.1162C168.109 14.1162 168.538 14.1641 168.834 14.2598C169.135 14.3509 169.285 14.4899 169.285 14.6768C169.285 14.9548 169.087 15.1507 168.69 15.2646C168.298 15.3786 167.804 15.4355 167.207 15.4355H165.888V17.1582H167.234C168.018 17.1582 168.59 17.2083 168.95 17.3086C169.315 17.4043 169.497 17.6117 169.497 17.9307C169.497 18.277 169.319 18.5163 168.964 18.6484C168.608 18.7806 168.139 18.8467 167.555 18.8467C166.945 18.8467 166.453 18.7715 166.079 18.6211C165.705 18.4707 165.518 18.2223 165.518 17.876V17.3701H162.189V17.9785Z" fill="black"/>
<path d="M236.848 21H247.081V18.7988H242.48L244.511 17.9443C245.149 17.6299 245.677 17.2471 246.097 16.7959C246.521 16.3402 246.73 15.7021 246.726 14.8818C246.716 13.9704 246.309 13.2275 245.502 12.6533C244.695 12.0745 243.483 11.7852 241.865 11.7852C240.316 11.7852 239.094 12.0973 238.201 12.7217C237.308 13.3415 236.861 14.1641 236.861 15.1895V15.5312H240.272V15.2031C240.272 14.7292 240.402 14.4421 240.662 14.3418C240.926 14.237 241.318 14.1846 241.838 14.1846C242.298 14.1846 242.649 14.221 242.891 14.2939C243.137 14.3623 243.262 14.5811 243.267 14.9502C243.267 15.2464 243.144 15.5016 242.897 15.7158C242.656 15.93 242.351 16.1237 241.981 16.2969L236.848 19.0723V21ZM248.17 15.8525C248.17 17.6117 248.669 18.9378 249.667 19.8311C250.665 20.7197 252.101 21.1641 253.974 21.1641C255.746 21.1641 257.159 20.7357 258.212 19.8789C259.265 19.0176 259.791 17.68 259.791 15.8662V16.9053C259.791 15.1598 259.287 13.8724 258.28 13.043C257.273 12.209 255.838 11.792 253.974 11.792C252.123 11.792 250.692 12.2181 249.681 13.0703C248.673 13.9225 248.17 15.2031 248.17 16.9121V15.8525ZM251.615 15.9004V16.8574C251.615 15.9141 251.811 15.2396 252.203 14.834C252.6 14.4238 253.192 14.2188 253.98 14.2188C254.76 14.2188 255.35 14.4238 255.751 14.834C256.152 15.2396 256.352 15.9163 256.352 16.8643V15.9141C256.352 16.9121 256.157 17.6436 255.765 18.1084C255.373 18.5732 254.778 18.8057 253.98 18.8057C253.174 18.8057 252.577 18.5732 252.189 18.1084C251.807 17.6436 251.615 16.9076 251.615 15.9004ZM264.98 21H268.405V11.9492H265.534L261.145 13.3574V16.1875L264.98 14.9707V21ZM276.365 21H279.489V11.8535H276.721L270.37 16.9873V19.4756H281.226V16.8574H277.924L277.733 17.0146H273.884L276.523 14.9912H276.577V18.6074L276.365 18.7031V21Z" fill="black"/>
<path d="M345.848 21H356.081V18.7988H351.48L353.511 17.9443C354.149 17.6299 354.677 17.2471 355.097 16.7959C355.521 16.3402 355.73 15.7021 355.726 14.8818C355.716 13.9704 355.309 13.2275 354.502 12.6533C353.695 12.0745 352.483 11.7852 350.865 11.7852C349.316 11.7852 348.094 12.0973 347.201 12.7217C346.308 13.3415 345.861 14.1641 345.861 15.1895V15.5312H349.272V15.2031C349.272 14.7292 349.402 14.4421 349.662 14.3418C349.926 14.237 350.318 14.1846 350.838 14.1846C351.298 14.1846 351.649 14.221 351.891 14.2939C352.137 14.3623 352.262 14.5811 352.267 14.9502C352.267 15.2464 352.144 15.5016 351.897 15.7158C351.656 15.93 351.351 16.1237 350.981 16.2969L345.848 19.0723V21ZM357.17 15.8525C357.17 17.6117 357.669 18.9378 358.667 19.8311C359.665 20.7197 361.101 21.1641 362.974 21.1641C364.746 21.1641 366.159 20.7357 367.212 19.8789C368.265 19.0176 368.791 17.68 368.791 15.8662V16.9053C368.791 15.1598 368.287 13.8724 367.28 13.043C366.273 12.209 364.838 11.792 362.974 11.792C361.123 11.792 359.692 12.2181 358.681 13.0703C357.673 13.9225 357.17 15.2031 357.17 16.9121V15.8525ZM360.615 15.9004V16.8574C360.615 15.9141 360.811 15.2396 361.203 14.834C361.6 14.4238 362.192 14.2188 362.98 14.2188C363.76 14.2188 364.35 14.4238 364.751 14.834C365.152 15.2396 365.352 15.9163 365.352 16.8643V15.9141C365.352 16.9121 365.157 17.6436 364.765 18.1084C364.373 18.5732 363.778 18.8057 362.98 18.8057C362.174 18.8057 361.577 18.5732 361.189 18.1084C360.807 17.6436 360.615 16.9076 360.615 15.9004ZM373.98 21H377.405V11.9492H374.534L370.145 13.3574V16.1875L373.98 14.9707V21ZM379.628 17.8486C379.619 18.8604 380.111 19.6647 381.105 20.2617C382.098 20.8587 383.436 21.1572 385.117 21.1572C386.945 21.1572 388.278 20.8451 389.116 20.2207C389.96 19.5964 390.381 18.7578 390.381 17.7051C390.381 16.7526 390.003 16.0075 389.246 15.4697C388.49 14.932 387.439 14.6631 386.095 14.6631C385.311 14.6631 384.666 14.7201 384.16 14.834C383.654 14.9434 383.247 15.071 382.937 15.2168L383.108 14.335H389.547V11.9355H380.695L379.99 16.8643L383.108 17.4932C383.249 17.3245 383.479 17.1605 383.798 17.001C384.117 16.8369 384.561 16.7549 385.131 16.7549C385.728 16.7549 386.182 16.821 386.491 16.9531C386.801 17.0853 386.956 17.3451 386.956 17.7324C386.956 18.1107 386.799 18.3887 386.485 18.5664C386.17 18.7441 385.71 18.833 385.104 18.833C384.443 18.833 383.919 18.7464 383.531 18.5732C383.149 18.3955 382.957 18.1198 382.957 17.7461V17.4453H379.628V17.8486Z" fill="black"/>
<path d="M453.848 21H464.081V18.7988H459.48L461.511 17.9443C462.149 17.6299 462.677 17.2471 463.097 16.7959C463.521 16.3402 463.73 15.7021 463.726 14.8818C463.716 13.9704 463.309 13.2275 462.502 12.6533C461.695 12.0745 460.483 11.7852 458.865 11.7852C457.316 11.7852 456.094 12.0973 455.201 12.7217C454.308 13.3415 453.861 14.1641 453.861 15.1895V15.5312H457.272V15.2031C457.272 14.7292 457.402 14.4421 457.662 14.3418C457.926 14.237 458.318 14.1846 458.838 14.1846C459.298 14.1846 459.649 14.221 459.891 14.2939C460.137 14.3623 460.262 14.5811 460.267 14.9502C460.267 15.2464 460.144 15.5016 459.897 15.7158C459.656 15.93 459.351 16.1237 458.981 16.2969L453.848 19.0723V21ZM465.17 15.8525C465.17 17.6117 465.669 18.9378 466.667 19.8311C467.665 20.7197 469.101 21.1641 470.974 21.1641C472.746 21.1641 474.159 20.7357 475.212 19.8789C476.265 19.0176 476.791 17.68 476.791 15.8662V16.9053C476.791 15.1598 476.287 13.8724 475.28 13.043C474.273 12.209 472.838 11.792 470.974 11.792C469.123 11.792 467.692 12.2181 466.681 13.0703C465.673 13.9225 465.17 15.2031 465.17 16.9121V15.8525ZM468.615 15.9004V16.8574C468.615 15.9141 468.811 15.2396 469.203 14.834C469.6 14.4238 470.192 14.2188 470.98 14.2188C471.76 14.2188 472.35 14.4238 472.751 14.834C473.152 15.2396 473.352 15.9163 473.352 16.8643V15.9141C473.352 16.9121 473.157 17.6436 472.765 18.1084C472.373 18.5732 471.778 18.8057 470.98 18.8057C470.174 18.8057 469.577 18.5732 469.189 18.1084C468.807 17.6436 468.615 16.9076 468.615 15.9004ZM482.54 21H485.965V11.9492H483.094L478.705 13.3574V16.1875L482.54 14.9707V21ZM488.135 17.1719C488.135 18.5208 488.645 19.5234 489.666 20.1797C490.692 20.8314 492.029 21.1572 493.679 21.1572C495.338 21.1572 496.685 20.8587 497.719 20.2617C498.754 19.6602 499.273 18.8717 499.278 17.8965C499.282 16.9258 498.911 16.2194 498.163 15.7773C497.416 15.3353 496.388 15.1143 495.08 15.1143C494.164 15.1143 493.253 15.333 492.346 15.7705C491.439 16.208 490.986 17.0033 490.986 18.1562H491.56C491.56 17.6003 491.751 17.2402 492.134 17.0762C492.521 16.9076 493.077 16.8232 493.802 16.8232C494.499 16.8232 495.014 16.8893 495.347 17.0215C495.68 17.1536 495.846 17.4066 495.846 17.7803C495.846 18.1813 495.661 18.4593 495.292 18.6143C494.928 18.7646 494.406 18.8398 493.727 18.8398C493.048 18.8398 492.515 18.751 492.127 18.5732C491.744 18.3955 491.553 18.0719 491.553 17.6025V17.4658C491.553 16.2354 492.041 15.4105 493.016 14.9912C493.991 14.5719 495.459 14.3623 497.418 14.3623H497.781V11.8057H497.316C494.294 11.8057 492.009 12.2796 490.459 13.2275C488.91 14.1755 488.135 15.4173 488.135 16.9531V17.1719Z" fill="black"/>
<path d="M561.848 21H572.081V18.7988H567.48L569.511 17.9443C570.149 17.6299 570.677 17.2471 571.097 16.7959C571.521 16.3402 571.73 15.7021 571.726 14.8818C571.716 13.9704 571.309 13.2275 570.502 12.6533C569.695 12.0745 568.483 11.7852 566.865 11.7852C565.316 11.7852 564.094 12.0973 563.201 12.7217C562.308 13.3415 561.861 14.1641 561.861 15.1895V15.5312H565.272V15.2031C565.272 14.7292 565.402 14.4421 565.662 14.3418C565.926 14.237 566.318 14.1846 566.838 14.1846C567.298 14.1846 567.649 14.221 567.891 14.2939C568.137 14.3623 568.262 14.5811 568.267 14.9502C568.267 15.2464 568.144 15.5016 567.897 15.7158C567.656 15.93 567.351 16.1237 566.981 16.2969L561.848 19.0723V21ZM573.17 15.8525C573.17 17.6117 573.669 18.9378 574.667 19.8311C575.665 20.7197 577.101 21.1641 578.974 21.1641C580.746 21.1641 582.159 20.7357 583.212 19.8789C584.265 19.0176 584.791 17.68 584.791 15.8662V16.9053C584.791 15.1598 584.287 13.8724 583.28 13.043C582.273 12.209 580.838 11.792 578.974 11.792C577.123 11.792 575.692 12.2181 574.681 13.0703C573.673 13.9225 573.17 15.2031 573.17 16.9121V15.8525ZM576.615 15.9004V16.8574C576.615 15.9141 576.811 15.2396 577.203 14.834C577.6 14.4238 578.192 14.2188 578.98 14.2188C579.76 14.2188 580.35 14.4238 580.751 14.834C581.152 15.2396 581.352 15.9163 581.352 16.8643V15.9141C581.352 16.9121 581.157 17.6436 580.765 18.1084C580.373 18.5732 579.778 18.8057 578.98 18.8057C578.174 18.8057 577.577 18.5732 577.189 18.1084C576.807 17.6436 576.615 16.9076 576.615 15.9004ZM590.54 21H593.965V11.9492H591.094L586.705 13.3574V16.1875L590.54 14.9707V21ZM597.508 21H601.097L605.862 14.5674V11.9355H595.943V14.6631H602.245L597.508 21Z" fill="black"/>
<path d="M670.848 21H681.081V18.7988H676.48L678.511 17.9443C679.149 17.6299 679.677 17.2471 680.097 16.7959C680.521 16.3402 680.73 15.7021 680.726 14.8818C680.716 13.9704 680.309 13.2275 679.502 12.6533C678.695 12.0745 677.483 11.7852 675.865 11.7852C674.316 11.7852 673.094 12.0973 672.201 12.7217C671.308 13.3415 670.861 14.1641 670.861 15.1895V15.5312H674.272V15.2031C674.272 14.7292 674.402 14.4421 674.662 14.3418C674.926 14.237 675.318 14.1846 675.838 14.1846C676.298 14.1846 676.649 14.221 676.891 14.2939C677.137 14.3623 677.262 14.5811 677.267 14.9502C677.267 15.2464 677.144 15.5016 676.897 15.7158C676.656 15.93 676.351 16.1237 675.981 16.2969L670.848 19.0723V21ZM682.17 15.8525C682.17 17.6117 682.669 18.9378 683.667 19.8311C684.665 20.7197 686.101 21.1641 687.974 21.1641C689.746 21.1641 691.159 20.7357 692.212 19.8789C693.265 19.0176 693.791 17.68 693.791 15.8662V16.9053C693.791 15.1598 693.287 13.8724 692.28 13.043C691.273 12.209 689.838 11.792 687.974 11.792C686.123 11.792 684.692 12.2181 683.681 13.0703C682.673 13.9225 682.17 15.2031 682.17 16.9121V15.8525ZM685.615 15.9004V16.8574C685.615 15.9141 685.811 15.2396 686.203 14.834C686.6 14.4238 687.192 14.2188 687.98 14.2188C688.76 14.2188 689.35 14.4238 689.751 14.834C690.152 15.2396 690.352 15.9163 690.352 16.8643V15.9141C690.352 16.9121 690.157 17.6436 689.765 18.1084C689.373 18.5732 688.778 18.8057 687.98 18.8057C687.174 18.8057 686.577 18.5732 686.189 18.1084C685.807 17.6436 685.615 16.9076 685.615 15.9004ZM699.54 21H702.965V11.9492H700.094L695.705 13.3574V16.1875L699.54 14.9707V21ZM704.232 18.2998C704.232 19.2295 704.699 19.9382 705.633 20.4258C706.567 20.9134 707.912 21.1572 709.666 21.1572C711.389 21.1572 712.717 20.9134 713.652 20.4258C714.59 19.9382 715.06 19.2295 715.06 18.2998C715.06 17.7119 714.805 17.2539 714.294 16.9258C713.784 16.5977 713.223 16.3926 712.612 16.3105V16.2832C713.232 16.1374 713.738 15.9004 714.13 15.5723C714.522 15.2396 714.718 14.7588 714.718 14.1299C714.718 13.4691 714.276 12.9154 713.392 12.4688C712.512 12.0221 711.27 11.7988 709.666 11.7988C708.026 11.7988 706.768 12.0176 705.893 12.4551C705.018 12.8926 704.58 13.4531 704.58 14.1367C704.58 14.7565 704.776 15.2305 705.168 15.5586C705.565 15.8822 706.098 16.126 706.768 16.29V16.3174C706.166 16.4131 705.592 16.6227 705.045 16.9463C704.503 17.2653 704.232 17.7165 704.232 18.2998ZM707.663 18.0127C707.663 17.68 707.827 17.4681 708.155 17.377C708.488 17.2858 708.994 17.2402 709.673 17.2402C710.343 17.2402 710.835 17.2881 711.15 17.3838C711.469 17.4795 711.628 17.6914 711.628 18.0195C711.628 18.3796 711.457 18.6188 711.115 18.7373C710.778 18.8558 710.295 18.915 709.666 18.915C709.028 18.915 708.534 18.8581 708.183 18.7441C707.836 18.6302 707.663 18.3864 707.663 18.0127ZM707.868 14.7588C707.868 14.4899 708.032 14.3099 708.361 14.2188C708.689 14.1276 709.124 14.082 709.666 14.082C710.199 14.082 710.623 14.1299 710.938 14.2256C711.257 14.3213 711.416 14.499 711.416 14.7588C711.416 15.1006 711.279 15.3216 711.006 15.4219C710.733 15.5176 710.288 15.5654 709.673 15.5654C709.044 15.5654 708.586 15.5176 708.299 15.4219C708.012 15.3216 707.868 15.1006 707.868 14.7588Z" fill="black"/>
</svg>
